<svg xmlns="http://www.w3.org/2000/svg" xmlns:xlink="http://www.w3.org/1999/xlink" viewBox="0 0 140.332 146.8488"><defs><clipPath id="a"><rect width="140.332" height="146.8488" style="fill:none"/></clipPath><clipPath id="b"><path d="M138.4826,46.4706,58.2678.0921c-.5048-.27209-1.3515.10381-2.3.57829-.9487.47391-.1142.26421-.1261.83732V62.1904a3.52535,3.52535,0,0,0,1.7617,3.0631l80.30151,46.3788a1.23051,1.23051,0,0,1,.58909.4955q1.82537-1.33815,1.83741-1.9114V49.5337a3.52586,3.52586,0,0,0-1.84881-3.0631" style="fill:none;clip-rule:evenodd"/></clipPath><linearGradient id="c" x1="55.85069" y1="95.14566" x2="114.50069" y2="40.21565" gradientUnits="userSpaceOnUse"><stop offset="0" stop-color="#1946b4"/><stop offset="1" stop-color="#8fafe8"/></linearGradient><clipPath id="d"><path d="M137.4429,47.1642,57.1414.78551A1.64666,1.64666,0,0,0,54.7149,2.2014V62.7395a3.526,3.526,0,0,0,1.7623,3.0631l80.3013,46.3788a1.64655,1.64655,0,0,0,2.4264-1.4159V50.2274a3.52643,3.52643,0,0,0-1.762-3.0632" style="fill:none"/></clipPath><linearGradient id="e" x1="54.7115" y1="56.4834" x2="139.0915" y2="56.4834" gradientUnits="userSpaceOnUse"><stop offset="0" stop-color="#3c5185"/><stop offset="0.21" stop-color="#455d94"/><stop offset="0.72" stop-color="#5674b3"/><stop offset="1" stop-color="#5d7dbe"/></linearGradient><clipPath id="f"><path d="M51.4511,68.7209.0349,95.7682s-.2889,4.0164.8087,4.6522l78.7995,45.5698a6.58379,6.58379,0,0,0,6.4992,0l50.5786-28.8964c.5876-.3628.8246-.6973.8246-2.12,0-1.423.01309-2.5322.01309-2.5322L57.9504,68.7209a6.52653,6.52653,0,0,0-6.4993,0" style="fill:none;clip-rule:evenodd"/></clipPath><linearGradient id="g" x1="21.47312" y1="103.11188" x2="100.29312" y2="110.19188" xlink:href="#c"/><clipPath id="h"><path d="M51.4511,65.6002.8728,94.4966a1.64721,1.64721,0,0,0,0,2.8896l78.7703,45.483a6.46869,6.46869,0,0,0,6.4992,0l50.5786-28.8963a1.64756,1.64756,0,0,0,0-2.8897L57.9504,65.6002a6.52653,6.52653,0,0,0-6.4993,0" style="fill:none"/></clipPath><linearGradient id="i" x1="0.0167" y1="104.24065" x2="137.3867" y2="104.24065" gradientUnits="userSpaceOnUse"><stop offset="0" stop-color="#293da5"/><stop offset="1" stop-color="#5f88da"/></linearGradient><clipPath id="j"><path d="M33.6285,110.6787a.43372.43372,0,0,0,0,.7515l20.7689,11.9917a1.645,1.645,0,0,0,1.7042,0l13.345-7.5997a.43346.43346,0,0,0,0-.7512L48.678,103.079a1.70313,1.70313,0,0,0-1.7042-.0289Z" style="fill:none"/></clipPath><linearGradient id="k" x1="20.16126" y1="111.06423" x2="69.76126" y2="114.51423" xlink:href="#i"/></defs><title>3</title><g style="clip-path:url(#a)"><g style="clip-path:url(#b)"><rect x="55.0191" y="-0.17999" width="85.31231" height="112.30779" style="fill:url(#c)"/></g><g style="clip-path:url(#d)"><rect x="54.7115" y="0.5136" width="84.4968" height="111.93961" style="fill:url(#e)"/></g><g style="clip-path:url(#f)"><rect x="-0.254" y="67.5655" width="137.81259" height="79.5685" style="fill:url(#g)"/></g><g style="clip-path:url(#h)"><rect x="0.0167" y="64.4448" width="137.56001" height="79.5917" style="fill:url(#i)"/></g><g style="clip-path:url(#j)"><rect x="33.4114" y="102.7542" width="36.2523" height="20.9849" style="fill:url(#k)"/></g><path d="M61.3877,72.5354a.26022.26022,0,0,1,0,.4624l-2.1666,1.2424a.60587.60587,0,0,1-.5488,0l-4.3616-2.514a.26014.26014,0,0,1,0-.4624l2.1665-1.2424a.4897.4897,0,0,1,.5485,0Z" style="fill:#1c2e80"/><path d="M63.4096,73.8357l4.3617,2.514a.26025.26025,0,0,1,0,.4335l-2.1665,1.2427a.49128.49128,0,0,1-.5488,0l-4.3617-2.4854a.26025.26025,0,0,1,0-.4335l2.1662-1.2424a.491.491,0,0,1,.5491-.0289" style="fill:#1c2e80"/><path d="M74.1838,79.933a.25989.25989,0,0,1,0,.4621l-2.1665,1.2427a.49128.49128,0,0,1-.5488,0l-4.3617-2.5141a.26014.26014,0,0,1,0-.4623l2.1666-1.2427a.6071.6071,0,0,1,.5485,0Z" style="fill:#1c2e80"/><path d="M76.4368,81.1465l4.3617,2.5138a.26038.26038,0,0,1,0,.4626l-2.1663,1.2424a.60587.60587,0,0,1-.5488,0l-4.3619-2.514a.26005.26005,0,0,1,0-.4623l2.1665-1.2425a.60587.60587,0,0,1,.5488,0" style="fill:#1c2e80"/><path d="M87.1532,87.099a.2311.2311,0,0,1,0,.4334l-2.1663,1.2427a.52.52,0,0,1-.5777,0l-4.3616-2.514a.26.26,0,0,1,0-.4334l2.1665-1.2425a.51967.51967,0,0,1,.5777.1157Z" style="fill:#1c2e80"/><path d="M93.306,91a.26014.26014,0,0,1,0,.4624l-2.1665,1.2427a.49019.49019,0,0,1-.5488,0L86.2291,90.191a.26005.26005,0,0,1,0-.4623l2.1662-1.2424a.60587.60587,0,0,1,.5488,0Z" style="fill:#1c2e80"/><path d="M99.7764,94.5833a.23126.23126,0,0,1,0,.4334l-2.1665,1.2427a.52.52,0,0,1-.5777,0l-4.3617-2.514a.25979.25979,0,0,1,0-.4334l2.1663-1.2424a.51892.51892,0,0,1,.5777,0Z" style="fill:#1c2e80"/><path d="M106.1311,98.2822a.26025.26025,0,0,1,0,.4335l-2.1665,1.2713a.57768.57768,0,0,1-.5777,0l-4.3328-2.514a.26025.26025,0,0,1,0-.4335l2.1666-1.2427a.49054.49054,0,0,1,.5485-.0286Z" style="fill:#1c2e80"/><path d="M112.3702,102.0676a.23117.23117,0,0,1,0,.4335l-2.1663,1.2424a.49055.49055,0,0,1-.5488,0l-4.3619-2.5141a.23126.23126,0,0,1,0-.4334l2.1665-1.2713a.57693.57693,0,0,1,.5777.0289Z" style="fill:#1c2e80"/><path d="M114.6234,103.339l4.3617,2.514a.26014.26014,0,0,1,0,.4624l-2.1665,1.2424a.6644.6644,0,0,1-.5777,0l-4.3617-2.5141a.26005.26005,0,0,1,0-.4623l2.1665-1.2424a.66372.66372,0,0,1,.5777,0" style="fill:#1c2e80"/><path d="M121.036,106.922l4.3327,2.5429a.2311.2311,0,0,1,0,.4334l-2.1376,1.2428a.52039.52039,0,0,1-.5777,0l-4.3617-2.5141a.23126.23126,0,0,1,0-.4334l2.1666-1.2716a.66576.66576,0,0,1,.5777,0" style="fill:#1c2e80"/><path d="M48.1581,74.7604l2.8885-1.7337a1.21237,1.21237,0,0,1,1.2421,0l2.8885,1.6758a.60713.60713,0,0,1,0,1.0403l-2.8885,1.7626a1.24154,1.24154,0,0,1-1.271,0l-2.8885-1.7047a.60678.60678,0,0,1,.0289-1.0403" style="fill:#1c2e80"/><path d="M57.6612,76.841a1.21255,1.21255,0,0,1,1.2422,0l2.8885,1.6472a.63546.63546,0,0,1,0,1.0689l-2.8885,1.7626a1.32768,1.32768,0,0,1-1.2711,0L54.7438,79.615a.63607.63607,0,0,1,.0289-1.0403Z" style="fill:#1c2e80"/><path d="M61.1563,82.1868l2.8888-1.7339a1.21338,1.21338,0,0,1,1.2419,0l2.8888,1.6472a.63609.63609,0,0,1,0,1.0692L65.287,84.9319a1.24118,1.24118,0,0,1-1.2708,0l-2.8885-1.7047a.57818.57818,0,0,1,.0286-1.0404" style="fill:#1c2e80"/><path d="M70.9197,84.1518a1.35666,1.35666,0,0,1,1.2422,0l2.8885,1.6759a.63609.63609,0,0,1,0,1.0692l-2.8885,1.7626a1.21255,1.21255,0,0,1-1.2422,0l-2.8885-1.7048a.63573.63573,0,0,1,0-1.0692Z" style="fill:#1c2e80"/><path d="M76.9277,87.7059a1.21393,1.21393,0,0,1,1.2422,0l2.8885,1.6472a.63573.63573,0,0,1,0,1.0692l-2.8885,1.7626a1.32768,1.32768,0,0,1-1.2711,0l-2.8882-1.7047a.636.636,0,0,1,.0289-1.0406Z" style="fill:#1c2e80"/><path d="M83.0517,91.4916a1.21255,1.21255,0,0,1,1.2422,0l2.8885,1.6469a.63609.63609,0,0,1,0,1.0692l-2.8885,1.7626a1.27009,1.27009,0,0,1-1.2422,0l-2.8888-1.7047a.636.636,0,0,1,0-1.0404Z" style="fill:#1c2e80"/><path d="M89.5796,95.0746a1.21255,1.21255,0,0,1,1.2422,0l2.8885,1.6472a.63546.63546,0,0,1,0,1.0689l-2.8885,1.7629a1.27163,1.27163,0,0,1-1.2422,0l-2.8885-1.7048a.63618.63618,0,0,1,0-1.0406Z" style="fill:#1c2e80"/><path d="M93.075,100.4204l2.8885-1.7339a1.35847,1.35847,0,0,1,1.2422,0l2.8882,1.6761a.60692.60692,0,0,1,0,1.0403l-2.8882,1.7626a1.185,1.185,0,0,1-1.2714,0l-2.8882-1.7048a.60678.60678,0,0,1,.0289-1.0403" style="fill:#1c2e80"/><path d="M102.2604,102.7032a1.21393,1.21393,0,0,1,1.2422,0l2.8885,1.6472a.63609.63609,0,0,1,0,1.0692l-2.8885,1.7626a1.21255,1.21255,0,0,1-1.2422,0l-2.8885-1.7051a.60665.60665,0,0,1,0-1.04Z" style="fill:#1c2e80"/><path d="M106.2179,108.3092l2.8882-1.7339a1.35826,1.35826,0,0,1,1.2421,0l2.8885,1.6761a.63573.63573,0,0,1,0,1.0692l-2.8885,1.7337a1.12642,1.12642,0,0,1-1.2421,0l-2.8882-1.705a.63557.63557,0,0,1,0-1.0401" style="fill:#1c2e80"/><path d="M115.3165,109.9562a1.21374,1.21374,0,0,1,1.2421,0l2.8885,1.6472a.63573.63573,0,0,1,0,1.0692l-2.8885,1.7626a1.24154,1.24154,0,0,1-1.271,0l-2.8885-1.7048a.578.578,0,0,1,.0289-1.0403Z" style="fill:#1c2e80"/><path d="M41.601,78.4301l2.8885-1.7337a1.21237,1.21237,0,0,1,1.2421,0l2.8885,1.6761a.60663.60663,0,0,1,0,1.0401l-2.8885,1.7628a1.24154,1.24154,0,0,1-1.271,0l-2.8885-1.7047a.60736.60736,0,0,1,.0289-1.0406" style="fill:#1c2e80"/><path d="M51.0755,80.424a1.21374,1.21374,0,0,1,1.2421,0l2.8885,1.6472a.63609.63609,0,0,1,0,1.0692L52.3176,84.903a1.24154,1.24154,0,0,1-1.271,0l-2.8885-1.705a.57784.57784,0,0,1,.0289-1.0401Z" style="fill:#1c2e80"/><path d="M57.5169,84.0362a1.27009,1.27009,0,0,1,1.2422,0l2.8882,1.6761a.63546.63546,0,0,1,0,1.0689l-2.8882,1.7626a1.24172,1.24172,0,0,1-1.2711,0l-2.8885-1.7047a.63585.63585,0,0,1,.0289-1.0982Z" style="fill:#1c2e80"/><path d="M64.3337,87.7348a1.35826,1.35826,0,0,1,1.2421,0l2.8885,1.6761a.60663.60663,0,0,1,0,1.0401l-2.8885,1.7628a1.12642,1.12642,0,0,1-1.2421,0l-2.8885-1.7047a.63617.63617,0,0,1,0-1.0403Z" style="fill:#1c2e80"/><path d="M70.3709,91.2892a1.21255,1.21255,0,0,1,1.2422,0l2.8885,1.6472a.63581.63581,0,0,1,0,1.0689l-2.8885,1.7629a1.24309,1.24309,0,0,1-1.2711,0l-2.8885-1.705a.57807.57807,0,0,1,.0289-1.0404Z" style="fill:#1c2e80"/><path d="M76.4657,95.0746a1.21237,1.21237,0,0,1,1.2421,0l2.8885,1.6472a.63546.63546,0,0,1,0,1.0689l-2.8885,1.7629a1.21237,1.21237,0,0,1-1.2421,0l-2.8885-1.7048a.60739.60739,0,0,1,0-1.0406Z" style="fill:#1c2e80"/><path d="M82.9936,98.6578a1.21283,1.21283,0,0,1,1.2421,0l2.8888,1.6473a.63581.63581,0,0,1,0,1.0689l-2.8888,1.7626a1.241,1.241,0,0,1-1.2707,0l-2.8885-1.7048a.60678.60678,0,0,1,.0289-1.0403Z" style="fill:#1c2e80"/><path d="M89.4064,102.2697a1.21393,1.21393,0,0,1,1.2422,0l2.8885,1.6762a.60692.60692,0,0,1,0,1.0403l-2.8885,1.7626a1.24172,1.24172,0,0,1-1.2711,0l-2.8885-1.7051a.63538.63538,0,0,1,.0289-1.04Z" style="fill:#1c2e80"/><path d="M92.9305,107.8758l2.8885-1.7339a1.15538,1.15538,0,0,1,1.2132,0l2.8885,1.6472a.63573.63573,0,0,1,0,1.0692l-2.8885,1.7626a1.24172,1.24172,0,0,1-1.2711,0l-2.8885-1.705a.60678.60678,0,0,1,.0579-1.0401" style="fill:#1c2e80"/><path d="M102.5203,110.1586a1.35666,1.35666,0,0,1,1.2422,0l2.8885,1.6758a.60718.60718,0,0,1,0,1.0406l-2.8885,1.7626a1.18446,1.18446,0,0,1-1.2711,0l-2.8885-1.7051a.63577.63577,0,0,1,.0289-1.04Z" style="fill:#1c2e80"/><path d="M105.8423,115.2731l2.8885-1.7337a1.21283,1.21283,0,0,1,1.2421,0l2.8882,1.6473a.63546.63546,0,0,1,0,1.0689l-2.8882,1.7629a1.24291,1.24291,0,0,1-1.271,0l-2.8885-1.7051a.60678.60678,0,0,1,.0289-1.0403" style="fill:#1c2e80"/><path d="M38.048,80.193a1.21255,1.21255,0,0,1,1.2422,0l2.8885,1.6758a.60692.60692,0,0,1,0,1.0403l-2.8885,1.7626a1.32768,1.32768,0,0,1-1.2711,0l-2.8885-1.7048a.63578.63578,0,0,1,.0289-1.04Z" style="fill:#1c2e80"/><path d="M44.5184,84.0073a1.21237,1.21237,0,0,1,1.2421,0l2.8885,1.6469a.636.636,0,0,1,0,1.0695l-2.8885,1.7626a1.24154,1.24154,0,0,1-1.271,0L41.601,86.7812a.6071.6071,0,0,1,.0289-1.0403Z" style="fill:#1c2e80"/><path d="M50.9309,87.5905a1.35666,1.35666,0,0,1,1.2422,0l2.8885,1.6759a.60692.60692,0,0,1,0,1.0403l-2.8885,1.7629a1.12773,1.12773,0,0,1-1.2422,0l-2.8885-1.7051a.63589.63589,0,0,1,0-1.0403Z" style="fill:#1c2e80"/><path d="M57.748,91.3181a1.21237,1.21237,0,0,1,1.2421,0l2.8885,1.6758a.60713.60713,0,0,1,0,1.0403l-2.8885,1.7626a1.24017,1.24017,0,0,1-1.271,0l-2.8885-1.7047a.60678.60678,0,0,1,.0289-1.0403Z" style="fill:#1c2e80"/><path d="M60.8964,96.6061l2.8888-1.7339a1.21338,1.21338,0,0,1,1.2419,0l2.8885,1.6472a.63585.63585,0,0,1,0,1.0692l-2.8885,1.7626a1.24172,1.24172,0,0,1-1.2711,0l-2.8882-1.7048a.60693.60693,0,0,1,.0286-1.0403" style="fill:#1c2e80"/><path d="M69.8219,98.6578a1.21283,1.21283,0,0,1,1.2421,0l2.8888,1.6473a.63581.63581,0,0,1,0,1.0689l-2.8888,1.7626a1.24118,1.24118,0,0,1-1.2708,0l-2.8596-1.5891a.60692.60692,0,0,1,0-1.156Z" style="fill:#1c2e80"/><path d="M76.4368,102.2408a1.27144,1.27144,0,0,1,1.2421,0l2.8885,1.6762a.63609.63609,0,0,1,0,1.0692l-2.8885,1.7626a1.24154,1.24154,0,0,1-1.271,0l-2.8885-1.7051a.57775.57775,0,0,1,.0289-1.0689Z" style="fill:#1c2e80"/><path d="M82.8207,105.853a1.212,1.212,0,0,1,1.2419,0l2.8885,1.6761a.60674.60674,0,0,1,0,1.0401l-2.6862,1.6472a1.24346,1.24346,0,0,1-1.2713,0l-2.8882-1.705a.636.636,0,0,1-.1735-.9247Z" style="fill:#1c2e80"/><path d="M86.2002,111.4302l2.8885-1.7051a1.27042,1.27042,0,0,1,1.2421,0l2.8885,1.6759a.63609.63609,0,0,1,0,1.0692l-2.8885,1.7629a1.24309,1.24309,0,0,1-1.2711,0l-2.8885-1.7051a.60658.60658,0,0,1,.029-1.0978" style="fill:#1c2e80"/><path d="M95.9635,113.7418a1.213,1.213,0,0,1,1.2422,0l2.8882,1.6759a.60692.60692,0,0,1,0,1.0403l-2.8882,1.7629a1.24364,1.24364,0,0,1-1.2714,0l-2.8882-1.7051a.60678.60678,0,0,1,.0289-1.0403Z" style="fill:#1c2e80"/><path d="M102.1448,117.1803a1.27144,1.27144,0,0,1,1.2421,0l2.8885,1.6761a.63573.63573,0,0,1,0,1.0692l-2.8885,1.7626a1.21237,1.21237,0,0,1-1.2421,0l-2.8885-1.7048a.6357.6357,0,0,1,0-1.0981Z" style="fill:#1c2e80"/><path d="M31.3177,83.7759a1.21393,1.21393,0,0,1,1.2422,0l2.8885,1.6473a.63573.63573,0,0,1,0,1.0692L32.5599,88.255a1.27009,1.27009,0,0,1-1.2422,0l-2.8885-1.7051a.636.636,0,0,1,0-1.04Z" style="fill:#1c2e80"/><path d="M38.048,87.5905a1.27009,1.27009,0,0,1,1.2422,0l2.8885,1.6759a.63573.63573,0,0,1,0,1.0692l-2.8885,1.7626a1.24172,1.24172,0,0,1-1.2711,0l-2.8885-1.7048a.63607.63607,0,0,1,.0289-1.0981Z" style="fill:#1c2e80"/><path d="M41.4567,92.8783l2.8885-1.7337a1.26952,1.26952,0,0,1,1.2419,0l2.8885,1.6761a.607.607,0,0,1,0,1.0404l-2.8885,1.7625a1.12609,1.12609,0,0,1-1.2419,0l-2.8885-1.705a.63589.63589,0,0,1,0-1.0403" style="fill:#1c2e80"/><path d="M48.3024,96.635l2.8885-1.7339a1.21374,1.21374,0,0,1,1.2421,0l2.8885,1.6761a.60692.60692,0,0,1,0,1.0403L52.433,99.3801a1.24154,1.24154,0,0,1-1.271,0l-2.8886-1.705a.607.607,0,0,1,.029-1.0401" style="fill:#1c2e80"/><path d="M54.8595,100.5647,57.748,98.831a1.21374,1.21374,0,0,1,1.2421,0l14.9913,8.6689a.63582.63582,0,0,1,0,1.0693l-2.8882,1.7628a1.243,1.243,0,0,1-1.2713,0l-15.0781-8.6692a.60689.60689,0,0,1,.1157-1.0981" style="fill:#1c2e80"/><path d="M76.2347,109.4363a1.21237,1.21237,0,0,1,1.2421,0l2.8885,1.6758a.6069.6069,0,0,1,0,1.0404l-2.8885,1.7625a1.2699,1.2699,0,0,1-1.2421,0l-2.8885-1.7047a.63576.63576,0,0,1,0-1.0403Z" style="fill:#1c2e80"/><path d="M79.6431,115.0132l2.8885-1.734a1.35826,1.35826,0,0,1,1.2421,0l2.8885,1.6762a.63573.63573,0,0,1,0,1.0692l-2.8885,1.7336a1.18405,1.18405,0,0,1-1.2711,0l-2.8885-1.7047a.63614.63614,0,0,1,.029-1.0403" style="fill:#1c2e80"/><path d="M89.3775,117.3248a1.21393,1.21393,0,0,1,1.2422,0l2.8885,1.6762a.60665.60665,0,0,1,0,1.04l-2.8885,1.7629a1.24218,1.24218,0,0,1-1.2711,0l-2.8885-1.7048a.636.636,0,0,1,.0289-1.0406Z" style="fill:#1c2e80"/><path d="M92.6705,122.4105l2.8885-1.7334a1.35666,1.35666,0,0,1,1.2422,0l2.8885,1.6758a.60706.60706,0,0,1,0,1.0401l-2.8885,1.7628a1.12659,1.12659,0,0,1-1.2422,0l-2.8885-1.7047a.63618.63618,0,0,1,0-1.0406" style="fill:#1c2e80"/><polygon points="134.439 51.007 58.903 7.114 58.903 62.479 134.439 106.373 134.439 51.007" style="fill:#001064"/><path d="M130.4334,49.8441q-16.9713-9.82755-33.9486-19.6639Q79.5258,20.35385,62.5431,10.527c-1.0384-.60581-1.8746-.142-1.8678,1.01278q.13005,11.957.2597,23.91421.1236,11.94165.2452,23.9046a4.222,4.222,0,0,0,1.9114,3.1995q16.93815,10.111,33.8904,20.2218,16.928,10.0983,33.8981,20.203c1.0384.6058,1.8822.1608,1.8751-1.0224q-.108-12.21255-.2021-24.4349-.09645-12.21255-.2021-24.4347a4.2125,4.2125,0,0,0-1.9176-3.2468" style="fill:#fff"/><path d="M82.1066,33.2008c2.9781,1.7416,5.9715,3.4917,8.9558,5.2256,2.9787,1.73,5.9777,3.4835,8.9626,5.226q.0438,4.91355.0936,9.8169c.0317,3.2655.0581,6.5518.0941,9.8178-2.9849-1.7702-5.9811-3.5387-8.9635-5.2923-2.9732-1.7486-5.97-3.5118-8.9481-5.2633q-.054-4.8855-.0941-9.7608C82.1744,39.7142,82.135,36.4569,82.1066,33.2008Z" style="fill:none;stroke:#2f427e;stroke-miterlimit:22.92558479309082;stroke-width:1.9198999404907227px"/><path d="M85.3435,35.094q5.47365,3.18045,10.946,6.3805,5.47065,3.1869,10.9607,6.3814c.0292,3.2757.0581,6.5613.0865,9.8365.0286,3.2749.0584,6.5605.0944,9.8362q-5.48385-3.22425-10.9539-6.4471-5.466-3.2157-10.9384-6.4477c-.036-3.2564-.0618-6.5134-.0941-9.7699Q85.3967,39.9793,85.3435,35.094Z" style="fill:none;stroke:#2f427e;stroke-miterlimit:22.92558479309082;stroke-width:1.9198999404907227px"/><path d="M91.9996,38.9659q5.61375,3.28035,11.2271,6.5418,5.619,3.2688,11.2417,6.5605c.036,3.2856.0584,6.58.0867,9.8557.0289,3.2843.0649,6.5795.0933,9.8649q-5.62365-3.3093-11.234-6.618c-3.7451-2.2097-7.4846-4.4023-11.2272-6.6172-.0289-3.2664-.0658-6.5325-.0941-9.7889Q92.04975,43.86675,91.9996,38.9659Z" style="fill:none;stroke:#2f427e;stroke-miterlimit:22.92558479309082;stroke-width:1.9198999404907227px"/><path d="M85.3435,35.094q7.6158,4.44555,15.2368,8.8804,7.62375,4.4463,15.2581,8.8892c.0292,3.2856.0584,6.58.0867,9.8648q.04335,4.9272.0865,9.8552-7.6251-4.4871-15.2436-8.9745-7.6149-4.4871-15.2292-8.9753c-.036-3.2564-.0618-6.5134-.0941-9.7699Q85.3967,39.9793,85.3435,35.094Z" style="fill:#fff;fill-rule:evenodd"/><path d="M85.3435,35.094q7.6158,4.44555,15.2368,8.8804,7.62375,4.4463,15.2581,8.8892c.0292,3.2856.0584,6.58.0867,9.8648q.04335,4.9272.0865,9.8552-7.6251-4.4871-15.2436-8.9745-7.6149-4.4871-15.2292-8.9753c-.036-3.2564-.0618-6.5134-.0941-9.7699Q85.3967,39.9793,85.3435,35.094Z" style="fill:none;stroke:#172a69;stroke-miterlimit:22.92558479309082;stroke-width:1.9198999404907227px"/><path d="M87.889,34.545q3.7104,2.15865,7.435,4.3268a.42039.42039,0,0,1,.1868.3217c.0077.6154.0145,1.2212.0145,1.8269.0076.1137-.0788.1607-.18.1038q-3.72045-2.17245-7.4342-4.3356a.45341.45341,0,0,1-.1953-.3218c0-.6057-.0068-1.2115-.0136-1.8178,0-.1228.0865-.1607.1868-.104" style="fill:#344882"/><path d="M103.2415,78.245c.7792.4637,1.5803.9269,2.3723,1.4012a.50915.50915,0,0,1,.2305.3883v.0947c0,.142-.1038.1842-.2237.1136-.7954-.4688-1.5874-.9456-2.3723-1.4108a.506.506,0,0,1-.2305-.3787v-.0941c0-.1426.0956-.1899.2237-.1142" style="fill:#2f427e;fill-rule:evenodd;opacity:0.49000000953674316"/><path d="M103.2123,75.1873c.7838.4651,1.588.9365,2.3794,1.4108a.499.499,0,0,1,.2236.3883v.0941c0,.133-.0997.1786-.2236.1046-.7914-.4742-1.5874-.9354-2.3718-1.4012a.54855.54855,0,0,1-.2381-.3979c-.0008-.0182,0-.057,0-.0854,0-.1417.1072-.1862.2305-.1133" style="fill:#2f427e;fill-rule:evenodd;opacity:0.49000000953674316"/><path d="M103.1695,70.5676c.7829.457,1.5811.9255,2.3723,1.3916a.51367.51367,0,0,1,.2228.3974c0,.0283.0062.0558.0077.0947.0056.1315-.1004.187-.2237.1136-.792-.4751-1.588-.936-2.3723-1.4011a.5528.5528,0,0,1-.2381-.3975c-.0006-.0277,0-.0566,0-.0949,0-.1417.1071-.1758.2313-.1038" style="fill:#2f427e;fill-rule:evenodd;opacity:0.49000000953674316"/><path d="M103.1831,72.1295c1.0871.6452,2.1878,1.2952,3.2737,1.9313a.52237.52237,0,0,1,.2313.3883c.0009.0278,0,.0658,0,.0941,0,.133-.1003.1967-.2236.1233-1.0874-.6451-2.1904-1.2875-3.2738-1.9312a.56094.56094,0,0,1-.2381-.3974c-.0014-.0374,0-.0666,0-.095,0-.1417.1075-.1862.2305-.1134" style="fill:#2f427e;fill-rule:evenodd;opacity:0.49000000953674316"/><path d="M103.2267,76.7211c1.0877.6537,2.1864,1.2954,3.2809,1.9502a.49884.49884,0,0,1,.2236.3787v.0947c0,.1324-.0998.1862-.2236.1137-1.0945-.646-2.1932-1.2855-3.2738-1.9316a.54089.54089,0,0,1-.2304-.3883c0-.0374.0005-.0672,0-.0947-.0057-.1511.1009-.1967.2233-.1227" style="fill:#2f427e;fill-rule:evenodd;opacity:0.49000000953674316"/><path d="M103.1978,73.6441c1.3901.8251,2.7851,1.6455,4.1825,2.4803a.49913.49913,0,0,1,.2237.3787v.095c0,.1321-.0975.2035-.2166.1321-1.402-.8368-2.7921-1.6552-4.1819-2.4804a.551.551,0,0,1-.2381-.3974v-.0947c0-.142.1071-.1862.2304-.1136" style="fill:#2f427e;fill-rule:evenodd;opacity:0.49000000953674316"/><path d="M109.6733,82.0607c1.0426.6174,2.0886,1.2356,3.1442,1.8649a.51629.51629,0,0,1,.2304.3878v.0856c0,.142-.1003.1967-.2236.1227-1.0514-.6355-2.0996-1.2483-3.1434-1.8652a.49652.49652,0,0,1-.2236-.3874v-.0859c0-.1421.0921-.1953.216-.1225" style="fill:#2f427e;fill-rule:evenodd;opacity:0.49000000953674316"/><path d="M109.6517,79.0021c.7835.466,1.577.9423,2.3724,1.4108a.48911.48911,0,0,1,.2236.3787v.0854c0,.1417-.1023.1998-.2166.1329-.801-.4717-1.595-.9456-2.3794-1.4111a.50034.50034,0,0,1-.2236-.3883v-.0851c0-.142.1003-.1958.2236-.1233" style="fill:#2f427e;fill-rule:evenodd;opacity:0.49000000953674316"/><path d="M109.6013,74.3632c1.0437.6259,2.0925,1.2297,3.1436,1.8562a.498.498,0,0,1,.2234.3883c0,.0374-.0006.0663,0,.0941.0062.142-.0961.1939-.216.1233q-1.5822-.9303-3.1442-1.8553a.51772.51772,0,0,1-.2237-.3883c-.0005-.0278,0-.0666,0-.095,0-.1417.0942-.1964.2169-.1233" style="fill:#2f427e;fill-rule:evenodd;opacity:0.49000000953674316"/><path d="M109.6157,75.9356c1.0364.6078,2.0747,1.2342,3.1221,1.8454a.48763.48763,0,0,1,.2237.3787c0,.0283-.0009.0671,0,.0949.0054.1517-.0927.207-.2166.133-1.044-.6259-2.0852-1.2393-3.1223-1.8562a.4984.4984,0,0,1-.2234-.3787c-.0014-.0371,0-.0663,0-.0946,0-.1421.0932-.1953.2165-.1225" style="fill:#2f427e;fill-rule:evenodd;opacity:0.49000000953674316"/><path d="M109.6662,80.5459c1.0508.6259,2.1067,1.2384,3.1513,1.8652a.50642.50642,0,0,1,.2304.3875c.0009.0277,0,.0567,0,.0949,0,.133-.1009.1973-.2236.123-1.0522-.6346-2.1079-1.2571-3.1581-1.8745a.51252.51252,0,0,1-.2236-.3883v-.0942c0-.1329.1011-.187.2236-.1136" style="fill:#2f427e;fill-rule:evenodd;opacity:0.49000000953674316"/><path d="M109.6373,77.4592c.756.4465,1.5222.9,2.2858,1.3442a.51167.51167,0,0,1,.2305.3886v.0947c0,.142-.0901.2021-.2236.1233-.76-.4507-1.5308-.898-2.2859-1.3444a.52468.52468,0,0,1-.2305-.398v-.095c0-.1321.101-.1862.2237-.1134" style="fill:#2f427e;fill-rule:evenodd;opacity:0.49000000953674316"/><path d="M118.6795,87.4c1.0724.6356,2.1563,1.2788,3.231,1.912a.523.523,0,0,1,.2372.3983v.0941c0,.1417-.1017.1896-.2304.1134-1.0744-.6333-2.162-1.2697-3.2307-1.912a.49414.49414,0,0,1-.2231-.3883v-.0941c0-.1426.0927-.1968.216-.1234" style="fill:#344882;fill-rule:evenodd;opacity:0.49000000953674316"/><path d="M118.658,84.3423c1.0871.6446,2.1705,1.2787,3.2661,1.9219a.51175.51175,0,0,1,.2313.3971v.0854c0,.1516-.1018.1896-.2313.1133q-1.63245-.96465-3.2661-1.9216a.49708.49708,0,0,1-.2234-.3883V84.456c0-.1426.1004-.1871.2234-.1137" style="fill:#344882;fill-rule:evenodd;opacity:0.49000000953674316"/><path d="M118.6075,79.6841q1.6.9483,3.2162,1.9029a.50447.50447,0,0,1,.2231.3884c0,.0286-.0014.0575,0,.0944.0054.1326-.0964.1936-.216.123-1.0766-.6389-2.1523-1.264-3.2162-1.9029a.52529.52529,0,0,1-.2236-.3787c-.0015-.0369,0-.0658,0-.1038,0-.142.1023-.1904.2165-.1233" style="fill:#2f427e;fill-rule:evenodd;opacity:0.49000000953674316"/><path d="M118.622,81.2557c.7857.4614,1.5667.9255,2.3434,1.3824a.51254.51254,0,0,1,.2236.3884c0,.0371-.0008.0663,0,.0941.0054.1426-.0955.193-.2165.123-.7804-.4499-1.5605-.913-2.3434-1.3816a.52631.52631,0,0,1-.2237-.3793c-.0014-.0368,0-.0657,0-.0944,0-.1417.1023-.1992.2166-.1326" style="fill:#2f427e;fill-rule:evenodd;opacity:0.49000000953674316"/><path d="M118.6727,85.8855c1.082.652,2.175,1.2827,3.2738,1.9307a.50632.50632,0,0,1,.2233.3883v.0947a.13634.13634,0,0,1-.2233.1233c-1.0911-.6389-2.1912-1.2793-3.2738-1.9312a.51181.51181,0,0,1-.2236-.3975v-.0949c0-.133.0961-.1897.2236-.1134" style="fill:#344882;fill-rule:evenodd;opacity:0.49000000953674316"/><path d="M118.6435,82.7895c1.0868.6452,2.1702,1.2787,3.267,1.9219a.5133.5133,0,0,1,.2304.3974v.0947c0,.1324-.0941.189-.2236.1136-1.0951-.644-2.1833-1.2696-3.2667-1.9218a.51756.51756,0,0,1-.2307-.3884v-.0941c0-.1426.1003-.1964.2236-.1233" style="fill:#344882;fill-rule:evenodd;opacity:0.49000000953674316"/><path d="M124.1235,90.6378c.7843.4651,1.5882.9263,2.3799,1.4011a.50792.50792,0,0,1,.2308.3878v.0947c0,.142-.1007.1967-.2237.1233-.792-.4748-1.595-.9456-2.3794-1.4108a.4999.4999,0,0,1-.2236-.3878v-.085c0-.1517.0929-.1967.216-.1233" style="fill:#344882;fill-rule:evenodd;opacity:0.49000000953674316"/><path d="M124.1019,87.5608c1.0871.6451,2.1759,1.3019,3.267,1.9411a.48684.48684,0,0,1,.2236.3785v.0949c0,.142-.1037.1925-.2236.1225-1.0911-.6395-2.1799-1.2946-3.267-1.9313a.49682.49682,0,0,1-.2233-.3877v-.095c0-.1417.1003-.1959.2233-.123" style="fill:#344882;fill-rule:evenodd;opacity:0.49000000953674316"/><path d="M124.0591,82.9128c1.0718.6273,2.1578,1.2654,3.2378,1.9023a.52436.52436,0,0,1,.2304.398c0,.0284-.0014.0576,0,.0944.0048.1426-.0995.1868-.2236.114-1.0798-.6367-2.1646-1.2765-3.2375-1.9126a.52042.52042,0,0,1-.2307-.3787c-.0015-.0374,0-.0666,0-.1037,0-.1426.0997-.1857.2236-.1137" style="fill:#344882;fill-rule:evenodd;opacity:0.49000000953674316"/><path d="M124.073,84.4843c1.0862.637,2.1833,1.2923,3.2814,1.9403a.50548.50548,0,0,1,.2236.3788c0,.0379-.0008.0671,0,.0949.0054.1514-.0929.2055-.2168.1321-1.0936-.6466-2.1937-1.2946-3.2805-1.9403a.53856.53856,0,0,1-.2305-.3884c-.0008-.0277,0-.0666,0-.0949,0-.142.0989-.1945.2228-.1225" style="fill:#344882;fill-rule:evenodd;opacity:0.49000000953674316"/><path d="M124.1167,89.1037c.7772.4646,1.574.9354,2.3578,1.4011a.49977.49977,0,0,1,.2237.3884v.0949c0,.1321-.1007.1965-.2237.1233-.7843-.466-1.5806-.936-2.3578-1.4011a.50285.50285,0,0,1-.2237-.3884V89.227a.13575.13575,0,0,1,.2237-.1233" style="fill:#344882;fill-rule:evenodd;opacity:0.49000000953674316"/><path d="M124.0875,86.0079q1.62075.9669,3.2522,1.9316a.496.496,0,0,1,.2236.3784v.095c0,.1321-.0961.2029-.2166.1321-1.0904-.6381-2.1716-1.2847-3.2516-1.9307a.5094.5094,0,0,1-.2313-.3884v-.0946a.13576.13576,0,0,1,.2237-.1234" style="fill:#344882;fill-rule:evenodd;opacity:0.49000000953674316"/><path d="M114.9732,83.6793c.508.3058.9995.6021,1.5069.9088a.49269.49269,0,0,1,.2237.3787v.0949c0,.1321-.0995.1854-.2237.1134-.4955-.2866-1.0009-.5913-1.5001-.8804a.52824.52824,0,0,1-.2304-.3974v-.095a.13644.13644,0,0,1,.2236-.123" style="fill:#344882;fill-rule:evenodd;opacity:0.49000000953674316"/><path d="M114.9877,85.2505c.4958.2951.9998.5928,1.4995.8904a.51463.51463,0,0,1,.231.3883v.0942c0,.142-.0995.1868-.2233.1136-.4958-.2951-1.0012-.6004-1.5001-.8898a.5273.5273,0,0,1-.2308-.3971v-.0859c0-.142.1004-.1862.2237-.1137" style="fill:#344882;fill-rule:evenodd;opacity:0.49000000953674316"/><path d="M114.944,80.6028c.5069.2983,1.0004.6007,1.5072.8992a.49153.49153,0,0,1,.2237.3883v.0851c0,.142-.093.1967-.216.1227-.5035-.3039-1.0004-.6009-1.5072-.8994a.49647.49647,0,0,1-.2305-.3787v-.0947c0-.142.1032-.1925.2228-.1225" style="fill:#2f427e;fill-rule:evenodd;opacity:0.49000000953674316"/><path d="M114.9588,82.1548c.5079.3059,1.0029.5961,1.5069.9a.50327.50327,0,0,1,.2236.3875v.095c0,.1329-.1032.193-.2236.1233-.4984-.2894-1.0004-.601-1.4996-.8904a.52918.52918,0,0,1-.231-.3974v-.0947a.13652.13652,0,0,1,.2237-.1233" style="fill:#344882;fill-rule:evenodd;opacity:0.49000000953674316"/><path d="M114.9157,77.4972c.506.2985,1.0017.599,1.5072.8992a.5108.5108,0,0,1,.216.3787c0,.0382.0062.0657.0073.1046.0057.1315-.098.1834-.2165.1136-.5012-.2985-.9995-.5918-1.5069-.8903a.53124.53124,0,0,1-.2308-.3878c-.0005-.0289-.0076-.0567-.0076-.0947a.14141.14141,0,0,1,.2313-.1233" style="fill:#2f427e;fill-rule:evenodd;opacity:0.49000000953674316"/><path d="M114.9301,79.0597c.5021.2956,1.0046.5828,1.5072.8895a.53129.53129,0,0,1,.2228.3883c.0009.0278,0,.0658,0,.0941,0,.1426-.1017.1911-.216.1233-.5051-.3004-1.0003-.6009-1.5069-.8991a.49555.49555,0,0,1-.2304-.3787c0-.038.0011-.0672,0-.1038-.0057-.1329.0989-.1862.2233-.1136" style="fill:#2f427e;fill-rule:evenodd;opacity:0.49000000953674316"/><path d="M63.7257,52.3715q7.7994,4.62915,15.6041,9.2398c.1585.0947.2889.2463.2889.3501.0068.6536.0144,1.3161.0212,1.9791,0,.0944-.1292.0944-.288.0091q-7.8096-4.62915-15.6041-9.2582a.56217.56217,0,0,1-.2889-.36q-.0102-.98055-.0212-1.9599c0-.1038.1292-.0947.288,0" style="fill:#172a69"/><path d="M63.6897,49.3421q7.79805,4.6011,15.6041,9.2307a.59657.59657,0,0,1,.2957.3405c.0076.6627.0144,1.3252.0144,1.9786,0,.1037-.1224.1037-.2809.0187q-7.81005-4.62915-15.6044-9.2495c-.1585-.0941-.2957-.2554-.2957-.3591,0-.6534-.0068-1.3071-.0144-1.9599-.0068-.1046.1224-.0947.2812,0" style="fill:#172a69"/><path d="M63.661,45.991q7.79865,4.6146,15.6045,9.2208a.53342.53342,0,0,1,.288.3407c.0076.6625.0076,1.3159.0144,1.9783,0,.095-.1292.1046-.2885.0196q-7.79865-4.616-15.6036-9.2308a.58015.58015,0,0,1-.2889-.36c-.0076-.6528-.0076-1.3158-.0144-1.9686,0-.095.1301-.095.2885,0" style="fill:#172a69"/><path d="M82.1134,63.2588q7.79865,4.6155,15.6045,9.2591c.1584.0941.2886.2457.2886.3404.0068.6625.0138,1.3258.0215,1.9979,0,.0941-.1301.0941-.2889.009q-7.8087-4.64355-15.6041-9.2681c-.1585-.0947-.288-.2463-.288-.3501-.0077-.6537-.0145-1.3161-.0145-1.9695,0-.0941.1225-.104.2809-.0187" style="fill:#172a69"/><path d="M82.0843,60.2101q7.7883,4.6155,15.6044,9.2404c.1584.0947.2886.2455.2886.3501.007.6624.0147,1.3252.0147,1.9882,0,.1037-.1227.1137-.2741.0187q-7.81005-4.6155-15.6113-9.2494a.56041.56041,0,0,1-.2888-.36c0-.6438-.0068-1.3062-.0145-1.9596-.0068-.1137.1225-.1137.281-.0284" style="fill:#172a69"/><path d="M82.0559,56.8587q7.7871,4.5867,15.6044,9.2121c.1585.1037.288.2554.288.3591.0077.6537.0077,1.3161.0145,1.9786,0,.0949-.1293.1046-.2886.0096q-7.8087-4.6146-15.6044-9.2304a.5253.5253,0,0,1-.288-.3504c-.0077-.6625-.0077-1.3065-.0145-1.9786,0-.0947.1301-.0947.2886,0" style="fill:#172a69"/><path d="M64.8649,16.3205c0,.20829-.0649.35031-.1944.407a.547.547,0,0,1-.4902-.085c-.3101-.18-.6278-.3595-.9374-.5395-.0073-.8237-.0221-1.63781-.0289-2.45189.2886.16069.5842.33079.8799.502a1.531,1.531,0,0,1,.4686.4637,1.219,1.219,0,0,1,.2015.60579c0,.20831-.0643.3316-.2015.3787a1.15686,1.15686,0,0,1,.3024.7192h0m-1.2112-1.96869c.0073.18.0073.35009.0073.53009.144.08529.288.1703.4397.2554.1301.0853.2304.02859.2304-.133a.51914.51914,0,0,0-.2372-.39709C63.9422,14.51221,63.7982,14.4368,63.6537,14.35181Zm.519,1.83659c.1516.085.2596.02831.2596-.1421a.57334.57334,0,0,0-.2596-.4354c-.1729-.09489-.3385-.1896-.5046-.29359.0077.189.0077.37869.0077.57739C63.841,15.9984,64.0074,16.0934,64.1727,16.1884Z" style="fill:#172a69"/><path d="M65.4707,17.39081c-.1369-.08531-.2597-.15161-.3889-.22791-.0148-.5961-.0221-1.18319-.0292-1.76989.1372.085.2741.16119.4036.23669.0077.587.0145,1.16411.0221,1.75121-.0076,0-.0076.0099-.0076.0099" style="fill:#172a69"/><path d="M65.0381,15.1843v-.37839c.0581.038.1157.0663.1729.10429a.51029.51029,0,0,1,.2313.3974v.1137c-.1301-.0757-.2673-.1607-.4042-.237" style="fill:#172a69"/><path d="M67.5981,17.5708a1.23777,1.23777,0,0,1,.5337.8513c0,.18-.0581.2846-.1808.3129a.69226.69226,0,0,1-.4465-.123,1.48142,1.48142,0,0,1-.6706-.7954.48193.48193,0,0,1,.1652-.0099.37873.37873,0,0,1,.2818.1995.59362.59362,0,0,0,.216.1987c.144.09471.2168.0754.2168-.01951,0-.0941-.1224-.22709-.2817-.36879a1.20017,1.20017,0,0,1-.5406-.8328c-.0071-.18.0505-.2846.1661-.313a.54331.54331,0,0,1,.4326.1046,1.43419,1.43419,0,0,1,.5913.70948c-.108.00971-.2237.00971-.3393.00971a.5916.5916,0,0,0-.252-.3221c-.1086-.0663-.1806-.05659-.1806.0383,0,.0947.1301.2171.2886.36h0" style="fill:#172a69"/><path d="M69.4942,17.97791c.1301.07539.2673.1604.4042.23579.0071.5587.0147,1.1174.0215,1.6665,0,.265-.0864.4354-.2381.4734a.71505.71505,0,0,1-.5836-.1233,1.7605,1.7605,0,0,1-.7504-.8612.58436.58436,0,0,0,.1302,0,.40809.40809,0,0,1,.3316.2174,1.09552,1.09552,0,0,0,.2957.2466c.2593.1514.411.0947.411-.1899v-.1791c-.1157.1037-.2818.0941-.5046-.0284a1.63654,1.63654,0,0,1-.5553-.578,1.59055,1.59055,0,0,1-.2381-.76641.54525.54525,0,0,1,.216-.51168.55238.55238,0,0,1,.5553.06658,1.20853,1.20853,0,0,1,.5046.54882v-.2171m-.1148.44419a.75771.75771,0,0,0-.3178-.3121c-.1295-.07539-.2375-.1038-.3095-.0567-.0865.038-.1301.13209-.1301.2746a.926.926,0,0,0,.4473.7291c.2593.1508.4393.0471.4325-.2279a.74383.74383,0,0,0-.1224-.407Z" style="fill:#172a69"/><path d="M71.3115,19.0375c.1369.0762.2741.1516.411.2369.0076.5967.0147,1.1838.0215,1.7796-.1372-.085-.2735-.1604-.4104-.2367v-.2367c-.1225.1046-.2818.0851-.5054-.0374a1.58643,1.58643,0,0,1-.5477-.587,1.5611,1.5611,0,0,1-.2305-.7858.578.578,0,0,1,.2092-.52041.49083.49083,0,0,1,.5474.047,1.21136,1.21136,0,0,1,.5049.54909v-.2086m-.4181,1.1174a.32385.32385,0,0,0,.3101.047.29171.29171,0,0,0,.1156-.2934.76816.76816,0,0,0-.1227-.4161.811.811,0,0,0-.3101-.322c-.1225-.0663-.2311-.0947-.3101-.0476a.3011.3011,0,0,0-.1225.2846.84969.84969,0,0,0,.1295.4257.81122.81122,0,0,0,.3102.3218Z" style="fill:#172a69"/><path d="M73.4533,20.5052a1.54285,1.54285,0,0,1,.2237.7762.55332.55332,0,0,1-.2092.53.51809.51809,0,0,1-.5406-.047,1.32751,1.32751,0,0,1-.5125-.5488c0,.3025,0,.6055.0071.8992-.0575-.0284-.1151-.0667-.1655-.095a.54513.54513,0,0,1-.245-.3974c0-.7288-.0147-1.4579-.0215-2.1963.1363.0754.2735.1604.4105.2367v.2083c.1156-.1046.2811-.0853.5048.0471a1.44729,1.44729,0,0,1,.5482.587h0m-.6057.7858a.31861.31861,0,0,0,.3101.038c.0864-.038.1295-.133.1224-.275a.916.916,0,0,0-.4396-.7475.34033.34033,0,0,0-.3178-.0479c-.0788.0383-.1148.1429-.1148.2846a.86756.86756,0,0,0,.1225.4258A.89477.89477,0,0,0,72.8476,21.291Z" style="fill:#172a69"/><path d="M66.3001,15.5443c-.0575-.038-.1157-.0663-.1732-.1037-.1293-.0763-.2381-.0193-.2381.1324,0,.1037.0076.21789.0076.3217-.0941-.0471-.1876-.10381-.2741-.1517,0,.1421,0,.2841.0068.43541.0868.04789.1809.10459.2744.15168,0,.24662.0074.48241.0074.71941a1.07572,1.07572,0,0,0,.7713,1.04179c0-.14209,0-.27469-.0068-.41668-.2313-.11371-.3538-.1987-.3538-.38842,0-.23669-.007-.47369-.007-.71939.1156.06661.2304.1324.3531.20861-.007-.142-.007-.29371-.007-.4357-.1157-.0663-.2381-.14171-.3538-.20832-.0068-.1987-.0068-.398-.0068-.58709" style="fill:#172a69"/><path d="M63.2568,20.4103c.8011.464,1.6013.9278,2.4015,1.4011a.56456.56456,0,0,1,.2597.4267v.0371c0,.1613-.1157.2183-.2529.142-.8002-.4637-1.6004-.9366-2.4006-1.4012a.54522.54522,0,0,1-.2526-.4257v-.0471c-.0071-.1613.1009-.218.2449-.1329" style="fill:#c8467f"/><path d="M63.2645,21.4231c.8002.4646,1.6004.9374,2.4006,1.4012a.54474.54474,0,0,1,.2597.4263v.0473c0,.1514-.1148.2084-.252.1327-.8002-.4638-1.601-.9275-2.4015-1.4012a.5475.5475,0,0,1-.2517-.4263V21.556c0-.1612.1003-.2179.2449-.1329" style="fill:#c8467f"/><path d="M63.2789,22.4365c.8002.464,1.6008.9278,2.401,1.4012a.55105.55105,0,0,1,.2525.4257v.0479c.0071.1508-.108.2075-.2449.1321-.801-.4637-1.6013-.9371-2.4015-1.4012a.55749.55749,0,0,1-.2596-.4354v-.047c0-.1517.108-.2084.2525-.1233" style="fill:#c8467f"/><path d="M63.2928,23.4493c.8011.464,1.6013.9374,2.4015,1.4012a.5364.5364,0,0,1,.2526.4257v.0479c.0071.1517-.1086.2175-.2458.1418-.8002-.4734-1.6004-.9372-2.4006-1.4108a.60459.60459,0,0,1-.2673-.4258v-.0471c0-.1612.1156-.2179.2596-.1329" style="fill:#c8467f"/><path d="M63.3005,24.4621c.8002.4638,1.6004.9374,2.4006,1.4012a.58016.58016,0,0,1,.2597.4266v.0471c0,.1513-.1148.2083-.252.1326-.8002-.4643-1.601-.9371-2.4015-1.4009a.559.559,0,0,1-.2594-.4356v-.0477c-.0071-.1516.1086-.2083.2526-.1233" style="fill:#c8467f"/><path d="M63.3793,31.6479c.7934.4734,1.6013.9471,2.4015,1.4109a.551.551,0,0,1,.2528.4257v.0476c.0068.1608-.1088.2175-.2457.1324-.8002-.4637-1.6076-.947-2.401-1.4108a.5865.5865,0,0,1-.267-.4258v-.047c0-.1613.1157-.2183.2594-.133" style="fill:#00c12d"/><path d="M63.3869,32.6608c.7934.4643,1.6008.9371,2.401,1.4108a.58088.58088,0,0,1,.2596.4354v.0476c0,.142-.1151.1987-.252.1227-.8005-.4728-1.6084-.9374-2.4015-1.4102a.55651.55651,0,0,1-.2596-.4263v-.0471c-.0068-.1516.1085-.2183.2525-.1329" style="fill:#00c12d"/><path d="M63.4017,33.6742c.7925.4728,1.6004.9462,2.4006,1.4102a.551.551,0,0,1,.2526.4263v.0471c0,.1516-.1154.218-.2526.1329-.8002-.4637-1.6081-.9374-2.4006-1.4108a.55442.55442,0,0,1-.2597-.4257v-.048c0-.1604.1148-.2171.2597-.132" style="fill:#00c12d"/><path d="M63.4085,34.687c.7934.4637,1.6013.9374,2.4015,1.4108a.55018.55018,0,0,1,.252.4257v.0471c0,.1516-.108.2083-.2452.1329-.8002-.4736-1.6081-.9374-2.4007-1.4108a.56372.56372,0,0,1-.2673-.4354v-.047c0-.1517.1157-.2086.2597-.1233" style="fill:#00c12d"/><path d="M63.4161,35.6998c.7926.4637,1.6005.9371,2.4007,1.4108a.57818.57818,0,0,1,.2596.4258v.0476c0,.1516-.1156.2174-.252.1324-.8007-.4641-1.6081-.9375-2.4015-1.4103a.55744.55744,0,0,1-.2593-.4263v-.0471c-.0071-.1613.1077-.2182.2525-.1329" style="fill:#00c12d"/><path d="M63.3433,28.5148c.7934.4638,1.6013.9366,2.4015,1.4003a.58154.58154,0,0,1,.2596.4363v.047c0,.1418-.1156.1987-.2525.1231-.8002-.4638-1.6076-.9372-2.401-1.4012a.57119.57119,0,0,1-.2593-.4354v-.0476c-.0077-.1517.108-.2084.2517-.1225" style="fill:#c8467f"/><path d="M63.3509,29.5177c.7934.4737,1.6008.9374,2.401,1.4108a.545.545,0,0,1,.2596.4258v.0479c0,.1508-.1151.2174-.252.1321-.8005-.4638-1.6084-.9372-2.4015-1.4012a.55765.55765,0,0,1-.2596-.4354v-.047c0-.1517.108-.218.2525-.133" style="fill:#c8467f"/><path d="M63.466,39.7516c.7931.4643,1.601.9471,2.4015,1.4108a.58476.58476,0,0,1,.2526.4354v.038c0,.1607-.1086.2271-.2458.142-.8002-.4637-1.6075-.9561-2.4006-1.4198a.567.567,0,0,1-.2673-.4354v-.0479c0-.1514.1156-.2084.2596-.1231" style="fill:#00c12d"/><path d="M63.4737,40.765c.7931.4638,1.6004.9374,2.4006,1.4103a.59724.59724,0,0,1,.2597.4354v.0476c0,.1516-.1151.2083-.252.1324-.8002-.4729-1.6081-.9562-2.4015-1.4199a.57274.57274,0,0,1-.2597-.4354v-.0471c-.0068-.1516.1089-.2083.2529-.1233" style="fill:#00c12d"/><path d="M63.3073,25.4758c.8005.4637,1.6013.9371,2.4015,1.4009a.5442.5442,0,0,1,.2596.4257v.0471c0,.1516-.1156.2183-.2525.1329-.8002-.4637-1.6008-.9371-2.401-1.4011a.55616.55616,0,0,1-.2593-.4354v-.0477c0-.151.108-.2077.2517-.1224" style="fill:#c8467f"/><path d="M63.322,26.4883c.8002.4641,1.601.9374,2.4015,1.4012a.55212.55212,0,0,1,.252.4258v.0479c0,.1516-.1151.2083-.252.1321-.8005-.4638-1.6013-.9372-2.4015-1.4012a.55672.55672,0,0,1-.2596-.4354v-.0471c0-.1516.1156-.2083.2596-.1233" style="fill:#c8467f"/><path d="M63.3297,27.5011c.8002.4641,1.6004.9375,2.4006,1.4012a.56438.56438,0,0,1,.2597.4266v.0471c0,.1514-.1157.218-.252.1321-.8011-.4638-1.6013-.9366-2.4015-1.4012a.55683.55683,0,0,1-.2597-.4354v-.047c-.0068-.1517.108-.2084.2529-.1234" style="fill:#c8467f"/><path d="M63.43,36.7132c.7931.4728,1.601.9462,2.4015,1.4102a.59726.59726,0,0,1,.2594.4354v.0476c0,.1517-.1154.1987-.2526.1228-.8002-.4728-1.6075-.9465-2.4006-1.4103a.55571.55571,0,0,1-.2597-.4354v-.0479c-.0076-.1508.108-.2083.252-.1224" style="fill:#00c12d"/><path d="M63.4445,37.726c.7934.4637,1.6013.9462,2.4015,1.4199a.55027.55027,0,0,1,.252.4167v.047c0,.1517-.1151.218-.252.133-.8002-.4638-1.6081-.9375-2.4015-1.4108a.55745.55745,0,0,1-.2597-.4354v-.0471c0-.1516.1157-.2083.2597-.1233" style="fill:#00c12d"/><path d="M63.4521,38.7388c.7926.4638,1.6005.9471,2.4007,1.4108a.56615.56615,0,0,1,.2528.4258v.0476c.0068.1607-.108.2078-.2452.1324-.8007-.4737-1.6081-.9465-2.4015-1.4108a.58443.58443,0,0,1-.2664-.4354v-.0374c0-.1613.1148-.2183.2596-.133" style="fill:#00c12d"/><path d="M129.3806,58.9515c.252.1508.5117.3025.76421.4445a.60162.60162,0,0,1,.26649.4354v.0567c0,.1517-.11481.2084-.2597.1233-.2517-.142-.5113-.2937-.76419-.4453a.55012.55012,0,0,1-.252-.4255v-.057c-.0074-.1516.108-.2083.24519-.1321" style="fill:#c8467f"/><path d="M129.3951,59.9831c.252.1513.51159.303.7642.4546a.54017.54017,0,0,1,.2596.4258v.0471c0,.1613-.1156.2279-.2596.1425-.25261-.1516-.51221-.303-.7642-.4546a.53753.53753,0,0,1-.2526-.4258v-.0479c0-.1604.1156-.2174.2526-.1417" style="fill:#00c12d"/><path d="M129.4021,61.0152c.25259.1516.5123.3024.7643.4541a.55617.55617,0,0,1,.25959.4354v.038c0,.1612-.11509.227-.252.142-.2596-.1517-.51931-.3025-.7719-.4541a.55236.55236,0,0,1-.252-.4264v-.0473c0-.1514.11479-.218.252-.1417" style="fill:#c8467f"/><path d="M129.4095,62.0467c.252.1514.5117.303.7713.445a.58711.58711,0,0,1,.2526.4451v.047c.00711.1613-.1086.2183-.24579.133-.25931-.1418-.519-.2934-.771-.4451a.5806.5806,0,0,1-.25969-.4354v-.047c0-.1613.11569-.2183.25259-.1426" style="fill:#c8467f"/><path d="M129.4166,63.0788c.252.1613.5117.3033.771.4547a.59651.59651,0,0,1,.25969.4356v.0471c0,.1604-.1148.2271-.252.1417-.2594-.1516-.519-.3024-.7719-.4541a.55206.55206,0,0,1-.252-.4263v-.0471c-.0074-.1613.108-.227.2452-.1516" style="fill:#c8467f"/><path d="M129.47411,70.3213c.25259.1517.51229.303.77189.4541a.5544.5544,0,0,1,.252.4354v.038c.0074.1613-.108.2183-.24519.142-.25962-.1516-.5193-.3024-.7713-.4541a.5772.5772,0,0,1-.25261-.4354V70.463c0-.1604.108-.2171.24521-.1417" style="fill:#c8467f"/><path d="M129.48151,71.3438c.252.1516.51168.303.7713.4541a.6167.6167,0,0,1,.25969.445V72.29c0,.1516-.1151.2182-.252.1329-.25971-.1516-.5193-.3033-.7719-.4541a.53.53,0,0,1-.24521-.4263v-.0471c-.00679-.1703.10121-.227.23812-.1516" style="fill:#c8467f"/><path d="M129.4886,72.3849c.2526.1517.51219.303.7719.4547a.57661.57661,0,0,1,.2596.4354v.0471c0,.1516-.1156.2182-.2528.142-.2594-.1605-.519-.3121-.77189-.4638a.53044.53044,0,0,1-.24491-.4257v-.0479c0-.1605.10089-.2172.2381-.1418" style="fill:#00c12d"/><path d="M129.5031,73.417c.252.1517.51159.3025.7713.4541a.56988.56988,0,0,1,.2525.4354v.0479c0,.1605-.1156.2175-.2525.1321-.25971-.1516-.5193-.3024-.7713-.4541a.53015.53015,0,0,1-.245-.4263V73.559c0-.1607.108-.2182.245-.142" style="fill:#d15d95"/><path d="M129.5101,74.4491c.2526.1511.5123.3028.7719.4541a.58492.58492,0,0,1,.252.4354v.0474c.0074.1613-.108.2276-.2452.1425-.25959-.1516-.5193-.3033-.7713-.4549a.59026.59026,0,0,1-.25261-.4258v-.0476c0-.1607.108-.2271.24521-.1511" style="fill:#00c12d"/><path d="M129.4234,64.1109c.2529.1516.5125.3024.7719.4541a.57711.57711,0,0,1,.2596.4354v.0479c0,.1604-.11561.2174-.25251.1321-.25969-.1417-.51928-.2934-.77128-.445a.53676.53676,0,0,1-.25261-.4258v-.0471c0-.1613.108-.2276.2449-.1516" style="fill:#00c12d"/><path d="M129.43111,65.152c.252.1517.51159.3034.77128.4451a.58724.58724,0,0,1,.25251.4453v.0374c0,.1613-.11561.218-.25251.1418-.25969-.1605-.51928-.3121-.77128-.4542a.55365.55365,0,0,1-.25261-.4354v-.0379c0-.1608.1156-.2175.25261-.1421" style="fill:#00c12d"/><path d="M129.4381,66.1745c.2526.1517.51229.3033.77191.4541a.587.587,0,0,1,.252.4363v.047c.0074.1605-.108.2271-.24521.142-.2596-.1516-.51931-.3033-.7713-.4541a.55569.55569,0,0,1-.2526-.4357v-.0476c-.0068-.1516.108-.2174.2452-.142" style="fill:#00c12d"/><path d="M129.5175,75.4806c.252.1517.51171.3033.7713.455a.59117.59117,0,0,1,.25969.4354v.0471c0,.1613-.108.227-.252.1417-.25969-.1514-.51928-.3025-.77189-.4541a.54681.54681,0,0,1-.2452-.4354v-.0476c-.0068-.1608.1012-.2175.2381-.1421" style="fill:#00c12d"/><path d="M129.5246,76.5127c.25261.1517.5122.3028.77189.4541a.57515.57515,0,0,1,.25962.4454v.047c0,.1517-.10881.218-.25281.133-.2594-.1517-.519-.3033-.771-.455a.54559.54559,0,0,1-.2458-.4354v-.047c0-.1613.10091-.218.2381-.1421" style="fill:#00c12d"/><path d="M129.53909,77.5539c.25281.1517.51221.3033.77181.455a.54851.54851,0,0,1,.252.4354v.047c0,.1517-.108.218-.252.1324-.2596-.1511-.519-.3027-.77181-.4544a.56646.56646,0,0,1-.245-.4354v-.0471c0-.1516.108-.2083.245-.1329" style="fill:#00c12d"/><path d="M129.4455,67.2157c.252.1516.5117.3033.7713.4549a.59648.59648,0,0,1,.2597.4354v.0471c0,.1516-.11571.218-.252.1329-.2597-.142-.5193-.2936-.77189-.445a.56063.56063,0,0,1-.24521-.4357v-.0476c-.0074-.1607.10119-.2174.2381-.142" style="fill:#c8467f"/><path d="M129.45261,68.2478c.25259.1516.51219.3033.77189.4544a.57979.57979,0,0,1,.2596.4359v.0471c0,.1607-.1156.2174-.25281.1324-.2594-.1511-.519-.3028-.77189-.4542a.5312.5312,0,0,1-.24491-.4257v-.0479c0-.1517.10091-.2174.23812-.142" style="fill:#c8467f"/><path d="M129.4671,69.2801c.252.1508.5116.3025.7713.4541a.56939.56939,0,0,1,.25251.4355v.0476c0,.1607-.1156.227-.25251.142-.2597-.1517-.5193-.3033-.7713-.4547a.54628.54628,0,0,1-.245-.4357v-.047c0-.1514.108-.218.245-.1418" style="fill:#00c12d"/><path d="M129.5461,78.4817c.25261.1516.5123.3033.77189.4547a.56477.56477,0,0,1,.25261.4354v.0473c0,.1613-.10119.218-.2458.1327-.2596-.1514-.5193-.3031-.7713-.4451a.58442.58442,0,0,1-.2526-.4354v-.0476c0-.1607.1086-.2174.2452-.142" style="fill:#00c12d"/><path d="M129.5535,79.5138c.252.1516.5117.3033.7713.4541a.54919.54919,0,0,1,.25259.4354v.0479c.00711.1604-.10089.227-.24489.1417-.2597-.1613-.5193-.3121-.77191-.4637a.5766.5766,0,0,1-.252-.4264v-.047c0-.1607.11481-.2174.24491-.142" style="fill:#00c12d"/><path d="M78.2844,28.959q3.71025,2.1591,7.4344,4.3268a.38546.38546,0,0,1,.1806.3121c.0071.6066.0139,1.2212.0139,1.8179.0076.1136-.0788.1613-.1729.104-2.4806-1.4386-4.9609-2.8874-7.4344-4.326a.43636.43636,0,0,1-.2013-.322c0-.6063-.0077-1.2121-.0147-1.8082,0-.123.0867-.1704.1944-.1046" style="fill:#344882"/><path d="M84.4569,33.3612c.267.1517.5414.313.8223.4737-.1372.1701-.2673.3217-.4042.483-.144-.3217-.2812-.6347-.4181-.9567" style="fill:#ebffff"/><path d="M63.7622,55.9312c3.4393,2.0449,6.886,4.0995,10.3258,6.1348a.42238.42238,0,0,1,.1871.322c.0074.767.0221,1.5429.0289,2.319,0,.1134-.0865.1517-.1877.0947-3.4389-2.035-6.8859-4.0989-10.3257-6.1348a.41821.41821,0,0,1-.1877-.3308c-.0068-.767-.0212-1.5341-.0283-2.3102,0-.1134.0791-.1613.1876-.0947" style="fill:#00c12d"/><path d="M82.2719,66.9223q5.1597,3.0537,10.3258,6.1347a.42054.42054,0,0,1,.1876.322c.0077.7767.0216,1.5625.0292,2.3383,0,.1137-.0864.1613-.1876.1041q-5.15985-3.081-10.3258-6.1438a.44174.44174,0,0,1-.1945-.3221c-.0076-.7761-.0223-1.5618-.0292-2.3385,0-.1134.0865-.1605.1945-.0947" style="fill:#c8467f"/><path d="M75.191,62.7188c1.4493.8521,2.8913,1.7141,4.3409,2.5753a.4426.4426,0,0,1,.1948.3316c.0073.7759.0144,1.5429.0212,2.319,0,.1233-.0864.1613-.1944.0947-1.442-.8521-2.8916-1.7229-4.3336-2.584a.38622.38622,0,0,1-.1877-.313c-.0068-.7761-.0212-1.552-.0283-2.319,0-.1137.0791-.1613.1871-.1046" style="fill:#0332e0"/><path d="M93.7012,73.7107c1.4496.8708,2.8916,1.7229,4.3413,2.5841a.40446.40446,0,0,1,.1868.3129q.0114,1.16415.0224,2.3287c0,.1233-.0868.1703-.1877.1136-1.442-.862-2.8916-1.7132-4.3336-2.5752a.42373.42373,0,0,1-.1953-.3221c-.0068-.7854-.0216-1.5616-.0284-2.3473,0-.1143.0865-.1613.1945-.0947" style="fill:#0332e0"/><path d="M117.3736,52.6082c.252.142.4609.0382.4609-.2464a1.03672,1.03672,0,0,0-.4685-.7857c-.252-.142-.4542-.0284-.4465.2562a.99861.99861,0,0,0,.4541.7759" style="fill:#f0e32f"/><path d="M117.3824,55.6942c.2526.1517.4618.0383.4547-.2457a.993.993,0,0,0-.4615-.7767c-.2529-.1417-.4473-.038-.4473.2466a1.00579,1.00579,0,0,0,.4541.7758" style="fill:#f0e32f"/><path d="M117.498,63.9309c.252.1516.4542.0382.4468-.2464a1.02326,1.02326,0,0,0-.4541-.7857c-.252-.1321-.4544-.0284-.4544.2562a1.01309,1.01309,0,0,0,.4617.7759" style="fill:#f0e32f"/><path d="M81.4572,42.8474c.0437.0283.0941.0566.144.085a.3604.3604,0,0,1,.1593.275c.0136,1.3728.0213,2.7552.0428,4.1278,0,.0944-.072.1323-.1584.0853-.0508-.0284-.1012-.0567-.144-.0853a.37445.37445,0,0,1-.1593-.2747c-.0216-1.3728-.0284-2.7553-.0428-4.1281,0-.0941.072-.1321.1584-.085" style="fill:#00c12d"/><path d="M86.0726,53.1572c.0428.0284.0865.0471.1363.0851a.34291.34291,0,0,1,.1594.2653c.0068.36.0068.7192.0136,1.0792,0,.0949-.072.1329-.1585.0762-.0505-.0292-.0935-.0479-.1369-.0762a.35752.35752,0,0,1-.1588-.2742c-.0068-.36-.0068-.7103-.0144-1.0703,0-.0947.0726-.1321.1593-.0851" style="fill:#00c12d"/><path d="M88.7329,48.632c.0437.0284.0941.0567.144.0851a.35874.35874,0,0,1,.1593.2749c0,.3597.0068.7192.0068,1.0695,0,.1043-.072.1418-.1584.0851-.0508-.0284-.1012-.0567-.144-.0754a.38892.38892,0,0,1-.1517-.275c0-.3501-.0076-.7191-.0076-1.0791,0-.095.0728-.1234.1516-.0851" style="fill:#00c12d"/><path d="M89.6417,48.8687c.0431.0187.0867.0567.1295.0754a.359.359,0,0,1,.1585.265c.0077.1234.0077.2467.0077.3697,0,.0944-.072.1324-.1585.0853-.0437-.0283-.0865-.0567-.1301-.0853a.34108.34108,0,0,1-.1585-.2651c0-.1133,0-.2366-.0076-.36,0-.1037.0725-.1417.159-.085" style="fill:#00c12d"/><path d="M95.1072,54.4068a1.14746,1.14746,0,0,0,.1372.085.36837.36837,0,0,1,.1661.275c0,.2554.0068.5108.0068.7761,0,.0947-.072.123-.1585.0759-.0504-.0283-.0941-.0566-.1369-.085a.35051.35051,0,0,1-.1664-.265c0-.2557,0-.5117-.0068-.7671a.0996.0996,0,0,1,.1585-.0949" style="fill:#00c12d"/><path d="M96.0163,54.6338c.0428.0292.0864.0576.1369.0859a.33552.33552,0,0,1,.1511.2741c0,.1233.0076.2367.0076.36,0,.0947-.0652.1321-.1516.0754a.69312.69312,0,0,1-.1372-.0754.37276.37276,0,0,1-.1662-.265v-.36a.10021.10021,0,0,1,.1594-.095" style="fill:#00c12d"/><path d="M86.9304,48.5937c.0433.0284.0864.0576.1369.0859a.3408.3408,0,0,1,.1584.2645q.0324,2.5848.0508,5.1602c.0068.1037-.0652.1225-.1517.0754-.0504-.0283-.0935-.0567-.1372-.085a.3229.3229,0,0,1-.1584-.2557c-.0216-1.7229-.036-3.437-.0576-5.1594,0-.1046.0652-.1425.1588-.0859" style="fill:#00c12d"/><path d="M96.9177,54.1514a.71566.71566,0,0,0,.1369.085.35727.35727,0,0,1,.1584.2653c0,.36.0071.7192.0071,1.0792,0,.0949-.072.1329-.1587.085-.0505-.0283-.0933-.0567-.1369-.085a.34334.34334,0,0,1-.1585-.275c0-.3501-.0076-.7095-.0076-1.0791,0-.0851.0725-.1225.1593-.0754" style="fill:#00c12d"/><path d="M97.8043,52.6365c.0428.0187.0865.0474.137.0757a.35862.35862,0,0,1,.1587.2747c.0068.7103.0145,1.4108.0213,2.1115,0,.0941-.072.1225-.1585.0658a1.35444,1.35444,0,0,0-.1369-.0658.36986.36986,0,0,1-.1588-.275q-.0102-1.0506-.0212-2.1016c0-.0949.0643-.142.1584-.0853" style="fill:#00c12d"/><path d="M82.3586,42.3649c.0434.0283.0865.0567.137.085a.35269.35269,0,0,1,.1516.2654c.0068.7004.0145,1.3912.0216,2.0919,0,.0947-.0652.133-.1517.0851a1.56026,1.56026,0,0,0-.1372-.0754.37446.37446,0,0,1-.1585-.275c-.0068-.7004-.0144-1.3912-.0215-2.092,0-.0946.072-.1321.1587-.085" style="fill:#00c12d"/><path d="M83.2813,43.8228a1.49429,1.49429,0,0,1,.1301.0754.32806.32806,0,0,1,.1585.265c.0076.6916.0147,1.3924.0147,2.0832.0068.1037-.0652.142-.1516.0949-.0505-.0286-.0865-.0569-.1296-.0762a.41107.41107,0,0,1-.1661-.2741c0-.7008-.0068-1.3921-.0144-2.0928,0-.0942.072-.1321.1584-.0754" style="fill:#d15d95"/><path d="M90.557,49.6074c.0437.0284.0865.0471.1372.0754a.35066.35066,0,0,1,.1514.2747c.0076.7007.0076,1.3915.0215,2.0922,0,.1038-.0643.1418-.1508.0851-.0507-.0284-.0941-.0471-.1372-.0754a.36173.36173,0,0,1-.1661-.275c-.0068-.7004-.0068-1.3915-.0144-2.0919,0-.095.0649-.1421.1584-.0851" style="fill:#d15d95"/><path d="M91.4661,51.6611c.0428.0286.0932.057.144.0853a.39192.39192,0,0,1,.1661.2747c0,.36,0,.7194.0068,1.0698,0,.1043-.072.1327-.1585.085-.0504-.0283-.1012-.0566-.144-.085a.33718.33718,0,0,1-.1516-.2653c-.0068-.3592-.0145-.7095-.0145-1.0792-.0071-.0941.0649-.1323.1517-.0853" style="fill:#d15d95"/><path d="M92.4752,52.6651c.0437.0284.0865.0567.1372.0851a.34044.34044,0,0,1,.1585.265v.1607c0,.0947-.0644.133-.1508.0859-.0508-.0283-.0941-.0575-.1372-.0859a.34356.34356,0,0,1-.1593-.2741c0-.0479-.0068-.1046-.0068-.1516,0-.095.072-.1321.1584-.0851" style="fill:#00c12d"/><path d="M93.3843,53.6023c.0428.0283.0932.057.144.0853a.38143.38143,0,0,1,.1584.265v.1608a.09234.09234,0,0,1-.1516.085.74891.74891,0,0,1-.144-.0754.37864.37864,0,0,1-.1585-.275v-.1604c0-.095.0652-.142.1517-.0853" style="fill:#d15d95"/><path d="M94.3002,54.5488c.0428.0283.0932.0567.144.085a.35915.35915,0,0,1,.1584.265c0,.228.0068.455.0068.6724,0,.0947-.072.1426-.1584.076-.0505-.0284-.101-.0567-.144-.076a.35834.35834,0,0,1-.1585-.2741c0-.2183-.0076-.4453-.0076-.6633,0-.1037.0725-.1321.1593-.085" style="fill:#d15d95"/><path d="M84.1972,46.3884c.0437.0283.0941.0567.1446.085a.33728.33728,0,0,1,.1511.2554c.0289,2.0645.0436,4.1182.0725,6.1827,0,.0941-.0725.1224-.1593.085a.82831.82831,0,0,1-.1437-.0947.3416.3416,0,0,1-.1587-.2653c-.0213-2.0545-.036-4.1085-.065-6.1727,0-.0941.072-.1225.1585-.0754" style="fill:#d15d95"/><path d="M85.1491,50.989a1.15417,1.15417,0,0,0,.1369.0853.34235.34235,0,0,1,.1587.2651c.0077.3696.0145.7288.0145,1.0791,0,.095-.072.133-.1585.0854a1.15612,1.15612,0,0,1-.1372-.0854.34059.34059,0,0,1-.1584-.265c-.0068-.3594-.0068-.7095-.0145-1.0792,0-.0944.072-.1323.1585-.0853" style="fill:#d15d95"/><path d="M87.8315,48.8217c.0436.0283.0941.0566.144.085a.34147.34147,0,0,1,.1593.265c0,.3595.0068.7195.0068,1.0698,0,.1038-.0649.1418-.1514.0947-.0507-.0283-.1012-.0567-.144-.085a.36785.36785,0,0,1-.1664-.275c0-.36-.0068-.7191-.0068-1.0791,0-.095.072-.1234.1585-.0754" style="fill:#d15d95"/><path d="M99.506,51.7941c.0436.0283.0941.0569.144.0853a.375.375,0,0,1,.159.265c0,.3691.0071.7291.0071,1.0792,0,.104-.0652.1516-.1517.0949a.487.487,0,0,1-.144-.085.3459.3459,0,0,1-.1584-.275c0-.3503-.0077-.7103-.0148-1.0791,0-.095.072-.133.1588-.0853" style="fill:#00c12d"/><path d="M100.4071,52.031a1.525,1.525,0,0,1,.144.0754.36616.36616,0,0,1,.1664.2747v.3594c0,.0947-.072.133-.1587.0851a.852.852,0,0,0-.1369-.0754.40786.40786,0,0,1-.1662-.2838v-.3503c0-.1046.065-.142.1514-.0851" style="fill:#00c12d"/><path d="M105.8803,57.5787c.0436.0187.0864.0471.1371.0754a.35822.35822,0,0,1,.1585.275c.0077.2554.0077.5108.0077.7758.0068.095-.0652.1324-.1517.0757-.0505-.0286-.0941-.047-.1372-.0757a.3565.3565,0,0,1-.1584-.265c0-.2554,0-.5205-.0077-.7761,0-.1044.0581-.1418.1517-.0851" style="fill:#00c12d"/><path d="M106.7893,57.7961c.0428.0284.0865.0567.1364.0851a.3451.3451,0,0,1,.159.2749c0,.1231,0,.2458.0071.3592,0,.0949-.072.1329-.1585.0859-.0507-.0284-.0944-.0567-.1372-.0859a.34322.34322,0,0,1-.1584-.2741c-.0077-.1134-.0077-.2367-.0077-.36,0-.0947.0726-.1321.1593-.0851" style="fill:#00c12d"/><path d="M107.6828,57.3038c.0437.0286.0944.0569.1449.0853a.33252.33252,0,0,1,.1508.265c0,.36.0076.7195.0076,1.0795,0,.1037-.0649.1417-.1446.0946-.0507-.0283-.1003-.0567-.144-.085a.34393.34393,0,0,1-.1584-.275c0-.36-.0077-.7191-.0077-1.0791,0-.095.0649-.1324.1514-.0853" style="fill:#00c12d"/><path d="M108.5774,55.7892c.036.0187.0788.0471.1293.0754a.34176.34176,0,0,1,.1587.2653c.0077.7101.0145,1.4108.0289,2.1209,0,.0941-.072.1228-.1584.0757a1.53112,1.53112,0,0,0-.1372-.0757.35741.35741,0,0,1-.1585-.265c-.0076-.7104-.0144-1.4108-.0215-2.1116,0-.1037.072-.1417.1587-.085" style="fill:#00c12d"/><path d="M101.323,52.7598c.0436.0284.0867.0471.1372.0853a.34046.34046,0,0,1,.1584.2651c.0077.7004.0145,1.4012.0145,2.1016.0071.104-.0649.142-.1437.0941-.0508-.0283-.0944-.0567-.1372-.085a.37173.37173,0,0,1-.1661-.2741q-.01065-1.0512-.0216-2.1017c0-.1046.072-.1329.1585-.0853" style="fill:#c8467f"/><path d="M102.246,54.8331a1.50412,1.50412,0,0,1,.1369.0757.36591.36591,0,0,1,.1661.2746c0,.3595.0071.7195.0071,1.0792,0,.104-.072.1324-.1585.0853-.0507-.0283-.0935-.0567-.1372-.0762a.35229.35229,0,0,1-.1584-.2741c0-.36-.0071-.72-.0071-1.0792,0-.095.0575-.142.1511-.0853" style="fill:#c8467f"/><path d="M103.2483,55.8272c.0436.0187.0864.057.1372.0853a.32394.32394,0,0,1,.1584.2651v.1607c.0077.0947-.0575.1417-.1516.085-.0499-.0283-.0936-.0567-.1364-.085a.36968.36968,0,0,1-.1661-.2741v-.1517c0-.0949.072-.142.1585-.0853" style="fill:#00c12d"/><path d="M104.1642,56.764c.0436.029.0864.0573.1372.0857a.343.343,0,0,1,.1584.2743v.1613c0,.0941-.072.1321-.1584.0754-.0508-.0283-.0936-.047-.1372-.0754a.3583.3583,0,0,1-.1585-.2653v-.1613c0-.1037.072-.1417.1585-.0947" style="fill:#c8467f"/><path d="M105.0656,57.7108c.0436.0187.0932.057.144.0853a.34254.34254,0,0,1,.159.2651c.0071.2367.0071.445.0071.6724a.09954.09954,0,0,1-.1585.0946.719.719,0,0,0-.1448-.085.375.375,0,0,1-.1585-.275c0-.227,0-.445-.0071-.6721,0-.0949.072-.142.1588-.0853" style="fill:#c8467f"/><path d="M98.6114,51.9928c.0436.0187.0867.047.1372.0754a.3843.3843,0,0,1,.1593.2749c0,.36.0068.7192.0068,1.0792,0,.0949-.072.1324-.1585.0757a1.56171,1.56171,0,0,0-.1372-.0757.343.343,0,0,1-.1584-.2747c0-.3594-.0077-.7095-.0077-1.0794,0-.0941.072-.1321.1585-.0754" style="fill:#c8467f"/><path d="M79.6907,46.3697c.0433.0283.0864.0567.1369.085a.36294.36294,0,0,1,.1584.2651c0,.3594,0,.7098.0077,1.0695a.09259.09259,0,0,1-.1517.0853c-.0504-.0284-.0941-.0567-.1369-.0853a.32373.32373,0,0,1-.1584-.2554c-.0077-.36-.0077-.7101-.0077-1.0701-.0071-.104.0649-.142.1517-.0941" style="fill:#00c12d"/><path d="M80.5918,46.5868c.0437.0286.0941.057.144.095a.35736.35736,0,0,1,.1593.265c0,.1233.0068.2458.0068.3691,0,.0949-.072.1329-.1584.0762-.0505-.0283-.1012-.0569-.144-.0853a.335.335,0,0,1-.1517-.265c0-.1233-.0076-.2464-.0076-.36,0-.095.0652-.142.1516-.095" style="fill:#d15d95"/><path d="M78.7893,46.5398c.0436.0286.0796.0569.1301.0853a.33682.33682,0,0,1,.1584.265c.0071.3691.0071.7195.0145,1.0792,0,.0949-.0649.142-.159.0757-.0505-.0284-.0865-.0471-.1296-.0757a.34124.34124,0,0,1-.1584-.2651c-.0077-.36-.0077-.7103-.0145-1.0791,0-.095.072-.133.1585-.0853" style="fill:#d15d95"/><path d="M109.6013,55.3634c1.1103.6432,2.2207,1.2966,3.331,1.9503a.42192.42192,0,0,1,.1947.3217c.0074.4071.0074.8141.0145,1.2212,0,.1136-.0865.1607-.1945.0949-1.1106-.6437-2.2209-1.2974-3.3313-1.9508a.42285.42285,0,0,1-.1944-.322c-.0077-.407-.0077-.8141-.0147-1.2211,0-.1134.0867-.1605.1947-.0942" style="fill:#00c12d"/><path d="M78.1047,30.8809q8.5872,4.9986,17.1901,10.0074a.60932.60932,0,0,1,.2597.4445c.0428,4.6956.083,9.3827.1295,14.0873q.0693,7.0434.1369,14.0871c0,.1516-.1148.2174-.252.123q-8.469-5.013-16.9236-10.0258a.53688.53688,0,0,1-.2529-.4258q-.0756-7.0728-.1437-14.1443-.06975-7.0707-.144-14.1534" style="fill:#ebffff"/><path d="M82.762,49.2945q2.6295,1.5336,5.2787,3.0957a.48273.48273,0,0,1,.2166.3787v.218c0,.1324-.0865.189-.209.1233q-2.6502-1.563-5.2786-3.1057a.51173.51173,0,0,1-.2305-.3784v-.227c0-.133.1004-.18.2228-.1046" style="fill:#bbceeb"/><path d="M79.8276,48.3009v-.1142a.68519.68519,0,0,1,.0068-.2075.66249.66249,0,0,1,.1012-.275.42377.42377,0,0,1,.3898-.1613.53758.53758,0,0,1,.2304.0576.4145.4145,0,0,1,.1301.0657,1.73764,1.73764,0,0,1,.5049.4547,1.88632,1.88632,0,0,1,.3384.6341,1.77144,1.77144,0,0,1,.0649.3124,2.43542,2.43542,0,0,1,.0148.313v.1604a.25139.25139,0,0,1-.0077.0754c-.0215.0763-.1151.0666-.1871-.0374a.215.215,0,0,1-.0581-.123v-.0754c0-.1143,0-.2279-.0068-.3413a.268.268,0,0,0-.0436-.142c-.0505-.095-.1225-.1324-.1729-.1038-.0287.0088-.0431.0371-.0508.0754a.1013.1013,0,0,0,.0077.0471v.3696c0,.0754-.0505.1037-.1157.0663a.26609.26609,0,0,1-.1224-.1896v-.0567c0-.1233,0-.2367-.0068-.3691a.243.243,0,0,0-.0437-.1329c-.0507-.0947-.1372-.1417-.1876-.1038a.10863.10863,0,0,0-.036.0854c.0076.123.0076.2454.0076.3687a.176.176,0,0,1-.0147.0854.0855.0855,0,0,1-.1154.0096.29352.29352,0,0,1-.108-.1516.27213.27213,0,0,1-.0071-.0754v-.3504c-.0076-.0284-.0076-.0567-.0144-.0851a.317.317,0,0,0-.108-.1712c-.0582-.047-.1012-.0371-.1302-.0088a.09234.09234,0,0,0-.0215.0567c.0071.1233.0071.2367.0071.3405a.47184.47184,0,0,1-.0071.1046c-.0077.047-.0581.0853-.1301.0374a.30592.30592,0,0,1-.1012-.1704.2514.2514,0,0,1-.0068-.0663v-.2078h0" style="fill:#0085d3"/><path d="M82.7844,52.2394c1.9755,1.1642,3.9436,2.319,5.9125,3.4835a.49993.49993,0,0,1,.2305.3784v.2183c0,.1321-.1004.18-.2237.1134-1.9681-1.1642-3.9367-2.3196-5.9125-3.4841a.48436.48436,0,0,1-.216-.3787v-.2084c-.0076-.142.0936-.189.2092-.1224" style="fill:#bbceeb"/><path d="M81.1111,51.3774c.144-.1517.2886-.2934.4258-.4541-.1588-.0947-.3178-.1897-.4689-.2747-.0649.0663-.1301.1417-.195.1984.0797.18.159.3504.2381.5304" style="fill:#bbceeb"/><path d="M80.8807,51.9361c.0788.1703.1513.322.2304.4824.1517.0854.3101.18.4686.275-.1517-.322-.3101-.6537-.4609-.9845-.0797.0754-.1593.1517-.2381.2271" style="fill:#bbceeb"/><path d="M81.0176,51.491c-.1953.18-.3821.36-.5627.54-.1587-.0949-.3172-.1899-.4689-.2749.1732-.1891.3609-.3691.5486-.5491-.1877-.4071-.3677-.7954-.5486-1.2025.1517.095.3102.19.4689.2841.1874.398.3674.7857.5627,1.2024" style="fill:#0094a9"/><path d="M82.8201,55.4958q2.6286,1.5618,5.2787,3.1144a.5184.5184,0,0,1,.216.3788v.2179c0,.1421-.0865.1891-.2092.1134-1.7665-1.0321-3.5263-2.0732-5.2784-3.1053a.5039.5039,0,0,1-.2236-.3787c0-.0754-.0068-.1517-.0068-.2175,0-.1417.1009-.1896.2233-.123" style="fill:#bbceeb"/><path d="M80.7143,54.5017c.2313.1321.4257.0284.4184-.237a.9156.9156,0,0,0-.4329-.71c-.2304-.1421-.4104-.0471-.4104.2179a.99083.99083,0,0,0,.4249.7291" style="fill:#71beff"/><path d="M80.729,55.6279c.2305.133.4258.0479.4181-.227a.92136.92136,0,0,0-.4252-.7095c-.231-.1426-.4257-.0383-.4257.2174a.98815.98815,0,0,0,.4328.7191" style="fill:#0074ff"/><path d="M81.2268,55.3538c.2381.1517.4249.038.4181-.218a.95254.95254,0,0,0-.4258-.729c-.2236-.1234-.4181-.0284-.4181.2366a.96761.96761,0,0,0,.4258.7104" style="fill:#3b95ff"/><path d="M80.2097,54.7571c.2305.133.4258.038.4181-.2174a.94253.94253,0,0,0-.4249-.7291c-.2313-.1329-.4181-.038-.4181.2271a.97594.97594,0,0,0,.4249.7194" style="fill:#035dff"/><path d="M80.6134,54.4068a.918.918,0,0,1-.3096-.5205,1.01573,1.01573,0,0,1,.3096.5205" style="fill:#0048ff"/><path d="M80.3109,54.8047a.23026.23026,0,0,1,.3101-.1709.22483.22483,0,0,1-.3101.1709" style="fill:#002dff"/><path d="M80.8223,54.7668a.98839.98839,0,0,1,.3104.5108.9575.9575,0,0,1-.3104-.5108" style="fill:#0348ff"/><path d="M81.1256,54.3784a.22123.22123,0,0,1-.3101.1517.22123.22123,0,0,1,.3101-.1517" style="fill:#006fff"/><path d="M94.8475,46.2277a1.54609,1.54609,0,0,1,.1372.0754.35355.35355,0,0,1,.1585.2749c.0147,1.0128.0215,2.0157.0292,3.0195,0,.095-.0652.1329-.1517.0853-.0504-.0283-.0935-.0567-.1372-.0754a.37517.37517,0,0,1-.1584-.2749c-.0145-1.0032-.0213-2.007-.0289-3.0198-.0071-.0947.0649-.1329.1513-.085" style="fill:#0332e0"/><path d="M82.6328,36.1448c1.5499.8992,3.0937,1.8083,4.6437,2.7074a.49013.49013,0,0,1,.2233.3787v.218c0,.1324-.0932.1891-.2165.1233-1.55-.9088-3.0929-1.8179-4.6437-2.717a.48137.48137,0,0,1-.2305-.3696v-.2175c0-.142.1009-.1987.2237-.1233" style="fill:#bbceeb"/><path d="M80.5558,35.8699c-.1292-.2075-.252-.4255-.3821-.6341a2.04452,2.04452,0,0,1-.2089.1136h0c.1944.3413.3889.6633.591,1.0038.1945-.1046.3898-.2084.5842-.3121h0c-.072-.1233-.1513-.2466-.2165-.3697q-.18375.0996-.3677.1985m.5122-.2838c.072.1233.144.2554.216.3697.072-.038.144-.076.2169-.1143-.0729-.1224-.1449-.2457-.2169-.3688C81.212,35.5198,81.14,35.5481,81.068,35.5861Zm-1.4709-.8611c.072.1323.144.2457.216.369.0649-.038.1369-.0754.2089-.1136-.072-.1231-.144-.2464-.2089-.3688C79.7411,34.6586,79.6691,34.687,79.5971,34.725Zm.9443-.5117c-.2016.1046-.3966.2084-.5837.322.072.1233.144.2464.216.36q.18375-.0999.3677-.1987c.1301.2174.2525.4258.3821.6438a1.66534,1.66534,0,0,1,.2092-.1231C80.9311,34.8766,80.7358,34.5546,80.5414,34.2133Z" style="fill:#f3bd29"/><path d="M80.7795,35.4158h0c-.0797-.1321-.1585-.2651-.2305-.3785a.96185.96185,0,0,0-.1661.0851h0a.02268.02268,0,0,1-.0215.0096c-.0145,0-.0292.0187-.036.0187h0v.0097c.072.1233.144.2457.2236.3787a1.89893,1.89893,0,0,1,.2305-.1233h0" style="fill:#f3bd29"/><path d="M82.6617,39.4013c1.7521,1.0321,3.5189,2.0642,5.2778,3.0866a.49621.49621,0,0,1,.2168.3787v.2174c0,.1421-.0867.1897-.2021.1234-1.7668-1.0321-3.5257-2.0546-5.2854-3.0958a.47585.47585,0,0,1-.2237-.369v-.218c-.0071-.142.0941-.1891.2166-.1233" style="fill:#bbceeb"/><path d="M79.8131,38.6634c.0797.1321.4831.7759,1.118.6721.4609-.1233.4397-.985.3889-1.2591a1.205,1.205,0,0,1-1.5069.587" style="fill:#85c866"/><path d="M81.248,38.0381a1.76276,1.76276,0,0,0-1.1463-.3501c-.3606.0476-.3966.398-.3821.6534a1.40645,1.40645,0,0,0,1.5284-.3033" style="fill:#619d3d"/><path d="M82.69,42.6583c1.7598,1.0411,3.5189,2.0636,5.2855,3.1048a.50529.50529,0,0,1,.2168.3696v.2174c0,.142-.0935.1996-.2092.1233q-2.64975-1.54815-5.2854-3.0957a.49371.49371,0,0,1-.2237-.3787v-.2174a.13276.13276,0,0,1,.216-.1233" style="fill:#bbceeb"/><path d="M80.3038,40.9921c-.0366.1233-.0581.2367-.0864.36-.2098-.095-.4258-.1897-.6424-.2846.2381-.0284.483-.0471.7288-.0754" style="fill:#2ebcff"/><path d="M80.4986,42.7623c.0504-.2174.1009-.4357.1508-.6528-.072-.0763-.144-.1517-.2092-.2183.0224.2841.036.5774.0584.8711" style="fill:#005383"/><path d="M80.2174,41.3521c-.0582.0941-.1086.1987-.1594.3024-.1652-.1987-.324-.3875-.483-.587.2166.0949.4326.1896.6424.2846" style="fill:#00b0ff"/><path d="M80.4986,42.7623c-.0224-.2937-.036-.587-.0584-.8711-.1364-.085-.2665-.1701-.389-.2457.144.369.2957.7477.4474,1.1168" style="fill:#0076bf"/><path d="M80.2174,41.3521c.072.1791.144.3503.2228.5391-.1293-.085-.2594-.1604-.3822-.2367.0508-.1037.1012-.2083.1594-.3024" style="fill:#009eff"/><path d="M80.3038,40.9921c.18.1321.36.2554.5409.3974-.2169-.0187-.4258-.0284-.6273-.0374.0283-.1233.0498-.2367.0864-.36" style="fill:#5ccfff"/><path d="M81.428,41.4655a3.46381,3.46381,0,0,0-.3313.2369c.0073-.1233.0144-.2466.0144-.3883.1009.047.2089.1037.3169.1514" style="fill:#5ccfff"/><path d="M81.6089,41.3237a1.88167,1.88167,0,0,0-.1809.1418c.0437.0374.0868.0657.1372.104.0145-.0754.0289-.1607.0437-.2458" style="fill:#5ccfff"/><path d="M81.248,41.5888c.108-.0097.2169-.0097.3172-.0193-.0504-.0383-.0935-.0666-.1372-.104-.0643.0374-.1224.0853-.18.1233" style="fill:#00acff"/><path d="M80.6494,42.1095c0-.1704.0076-.3317.0076-.4924-.072.0853-.144.1794-.2168.2741.0652.0666.1372.142.2092.2183" style="fill:#0076bf"/><path d="M80.9671,42.1095c-.0796.085-.1584.18-.2236.265-.0797-.1613-.1517-.3413-.2237-.5213.144.0859.2957.171.4473.2563" style="fill:#008eda"/><path d="M80.8447,41.3895a1.56512,1.56512,0,0,0-.1877.2276c-.1516-.0859-.2956-.18-.4396-.265.2015.009.4104.0187.6273.0374" style="fill:#2ebcff"/><path d="M80.657,41.6171c0,.1607-.0076.322-.0076.4924.1445.2458.2817.4824.4257.7191-.1372-.3974-.2812-.8141-.4181-1.2115" style="fill:#0069a2"/><path d="M81.284,42.6866c-.0864-.2463-.1513-.483-.2233-.7288,0,.2838.0073.5775.0144.8708.072-.047.1369-.0949.2089-.142" style="fill:#00a2e9"/><path d="M81.0967,41.7024c-.0148.0941-.0216.1701-.036.2554-.1372-.1136-.2668-.2367-.4037-.3407.144.0284.2886.057.4397.0853" style="fill:#00a2e9"/><path d="M81.2988,42.1849c-.0868-.0754-.1588-.1517-.2381-.2271.0144-.0853.0212-.1613.036-.2466.0649.1517.1301.313.2021.4737" style="fill:#6edcff"/><path d="M81.392,42.7337c-.1003-.2172-.1868-.4255-.2664-.6242.0504.0283.0935.0567.144.085.036.18.072.3504.1224.5392" style="fill:#5ccfff"/><path d="M80.8951,41.3141c.0644.1321.1296.2554.2016.3883.0073-.1233.0144-.2466.0144-.3883a1.6218,1.6218,0,0,1-.216,0" style="fill:#2ebcff"/><path d="M81.0607,41.9578c-.1372-.1136-.2668-.2367-.4037-.3407.1369.3974.2809.8141.4181,1.2115-.0071-.2933-.0144-.587-.0144-.8708" style="fill:#008eda"/><path d="M81.284,42.6866a.96537.96537,0,0,0,.0868.1041c-.1012.0192-.1948.0283-.2957.0379.072-.047.1369-.0949.2089-.142" style="fill:#0076bf"/><path d="M81.392,42.7249c-.1224-.2653-.2233-.5117-.3313-.7671.072.2458.1369.4825.2233.7288a.51174.51174,0,0,0,.108.0383" style="fill:#2ebcff"/><path d="M80.8951,41.3141c-.0796.1134-.1593.2083-.2381.303.144.0284.2886.057.4397.0941-.072-.1321-.1372-.265-.2016-.3971" style="fill:#5ccfff"/><path d="M82.726,46.1231c1.4567.862,2.9064,1.7044,4.3705,2.5752a.45848.45848,0,0,1,.2236.3691v.218c.0068.142-.0944.1891-.2168.1233-1.4636-.8716-2.9129-1.7045-4.3696-2.5662a.53621.53621,0,0,1-.2311-.3787v-.2174c0-.142.101-.1897.2234-.1233" style="fill:#bbceeb"/><path d="M80.8807,44.9589a1.74905,1.74905,0,0,0-.2673-.8711c-.0071-.0187-.0139-.0187-.0139-.0096h0c0,.6437-.3033.6437-.4686.7766-.383.3221-.0147,1.1362.3529,1.4579.2021.1891-.0504-.1329-.0941-.5213-.036-.4541.491-.4824.491-.8325h0" style="fill:#bbceeb"/><path d="M81.0819,45.2806h-.0068a.62584.62584,0,0,1-.1876.3124.69489.69489,0,0,0-.0284.9184c.0644.1137,0,0,.1656.0187.0144.0097.3101,0,.339-.3787a1.55646,1.55646,0,0,0-.2818-.8708h0" style="fill:#1d8dff"/><path d="M91.459,38.0477c.2664.1608.5406.3124.8218.4828-.1517-.322-.2886-.6441-.4258-.9658-.1364.1709-.2736.3217-.396.483" style="fill:#00c12d"/><path d="M121.7511,48.4713c-.252-.038-.4325.1321-.4251.4541a1.48993,1.48993,0,0,0,.4396.9754.58687.58687,0,0,1-.252-.095,1.4733,1.4733,0,0,1-.6922-1.1641c-.0077-.4267.2956-.5967.6777-.3788a1.33438,1.33438,0,0,1,.252.2084" style="fill:#344882"/><path d="M124.26,51.22337c.252.14172.46088.03713.46088-.25623a1.00063,1.00063,0,0,0-.46853-.77608c-.24518-.15135-.43962-.038-.43962.2466A1.01611,1.01611,0,0,0,124.26,51.22337Z" style="fill:#344882"/><path d="M124.26,51.22337c.252.14172.46088.03713.46088-.25623a1.00063,1.00063,0,0,0-.46853-.77608c-.24518-.15135-.43962-.038-.43962.2466A1.01611,1.01611,0,0,0,124.26,51.22337Z" style="fill:none;stroke:#3e508b;stroke-linecap:round;stroke-linejoin:round;stroke-width:0.1342667043209076px"/><path d="M124.2523,50.19106V49.879" style="fill:none;stroke:#3e508b;stroke-linecap:round;stroke-linejoin:round;stroke-width:0.1342667043209076px"/><path d="M124.26675,51.53544c0-.10459,0-.20833-.0068-.31207" style="fill:none;stroke:#3e508b;stroke-linecap:round;stroke-linejoin:round;stroke-width:0.1342667043209076px"/><path d="M124.57684,50.52268a1.83055,1.83055,0,0,0,.19445-.10458" style="fill:none;stroke:#3e508b;stroke-linecap:round;stroke-linejoin:round;stroke-width:0.1342667043209076px"/><path d="M123.76221,51.00512a1.40909,1.40909,0,0,1,.18764-.123" style="fill:none;stroke:#3e508b;stroke-linecap:round;stroke-linejoin:round;stroke-width:0.1342667043209076px"/><path d="M124.58392,51.25172c.06491.11337.1301.227.20211.33078" style="fill:none;stroke:#3e508b;stroke-linecap:round;stroke-linejoin:round;stroke-width:0.1342667043209076px"/><path d="M123.74749,49.83109c.06519.10459.13038.20862.19472.322" style="fill:none;stroke:#3e508b;stroke-linecap:round;stroke-linejoin:round;stroke-width:0.1342667043209076px"/><path d="M103.9337,45.3866c.036.0284.0643.038.1009.0664a.27872.27872,0,0,1,.1296.2179c0,.2175.0068.4258.0068.6342a.08083.08083,0,0,1-.1293.0756.56815.56815,0,0,0-.1012-.0657.2805.2805,0,0,1-.1293-.2183c0-.218-.0076-.4258-.0076-.6437,0-.0754.0581-.095.1301-.0664" style="fill:#43578f"/><path d="M104.5539,45.3396a.52539.52539,0,0,0,.1148.0663.31838.31838,0,0,1,.1301.2174c0,.36,0,.7005.0071,1.0508,0,.0763-.0504.1137-.1224.0664a.49165.49165,0,0,1-.1157-.0664.27318.27318,0,0,1-.1224-.2083c-.0071-.3504-.0071-.7007-.0071-1.0508a.07234.07234,0,0,1,.1156-.0754" style="fill:#43578f"/><path d="M105.1957,46.5321a.53051.53051,0,0,0,.1148.0666.30412.30412,0,0,1,.1301.2174v.2367a.07574.07574,0,0,1-.1225.0664c-.0436-.0284-.0796-.0471-.1156-.0664a.27714.27714,0,0,1-.1157-.2174v-.227c-.0068-.0859.036-.1143.1089-.0763" style="fill:#43578f"/><path d="M108.86574,48.74973c.15135-.09494.31689-.18962.483-.29363.15164.18.30242.3594.45407.549.18-.095.36083-.18962.54082-.28372" style="fill:none;stroke:#43578f;stroke-linecap:round;stroke-linejoin:round;stroke-width:0.2685199975967407px"/><path d="M106.1688,46.9961c.1732.1044.3532.2084.5409.3218-.0936.1046-.18.2083-.2665.322-.0944-.2174-.1876-.4258-.2744-.6438" style="fill:#ebffff"/><path d="M111.0793,49.3891c.1805.1134.3605.2084.5482.3218-.0941.1046-.18.2182-.2665.322-.0941-.2084-.1953-.4258-.2817-.6438" style="fill:#ebffff"/><path d="M67.2735,59.1307c1.2328.7367,2.4684,1.4746,3.6919,2.1966a.5128.5128,0,0,1,.2233.3883v.095c0,.142-.0918.1862-.216.1133-1.2237-.7219-2.4582-1.4598-3.6918-2.1965a.50684.50684,0,0,1-.2381-.3784v-.095c0-.142.1026-.1993.2307-.1233" style="fill:#ebffff;fill-rule:evenodd;opacity:0.49000000953674316"/><path d="M76.2369,64.4703c.7546.4382,1.5132.8924,2.2782,1.3442a.50919.50919,0,0,1,.2166.3787c.0009.0292.0071.0567.0071.095a.13259.13259,0,0,1-.216.123c-.7651-.4527-1.5231-.9068-2.2791-1.3538a.50649.50649,0,0,1-.2304-.3878v-.095c0-.1326.1003-.1763.2236-.1043" style="fill:#ebffff;fill-rule:evenodd;opacity:0.49000000953674316"/><path d="M85.6468,70.056c1.2141.7333,2.4458,1.4468,3.6627,2.1773a.49886.49886,0,0,1,.2236.3787c.0015.0388.0077.0663.0077.1046,0,.1417-.1004.1868-.2237.1134-1.2169-.7302-2.4477-1.4434-3.6635-2.177a.512.512,0,0,1-.2304-.3983c0-.0284-.0057-.0567-.0068-.0947-.0051-.1315.0975-.1834.2304-.104" style="fill:#ebffff;fill-rule:evenodd;opacity:0.49000000953674316"/><path d="M94.7466,75.4619c.7489.4465,1.5021.8972,2.2499,1.3349a.53052.53052,0,0,1,.2236.3883c.0014.038.0077.0658.0077.1038,0,.1329-.1004.1868-.2237.1136q-1.1238-.67005-2.2498-1.3444a.49873.49873,0,0,1-.2313-.3787v-.0942c0-.1425.1012-.1967.2236-.1233" style="fill:#ebffff;fill-rule:evenodd;opacity:0.49000000953674316"/><path d="M118.319,52.4381c.7863.4637,1.5789.9178,2.3799,1.3912a.56734.56734,0,0,1,.2665.4258v.0479c0,.1604-.1157.2271-.2597.1417-.8002-.4733-1.5936-.9275-2.3791-1.3824a.57006.57006,0,0,1-.2596-.4354v-.0567c-.0077-.1517.108-.2174.252-.1321" style="fill:#344882"/><path d="M118.3266,53.4693c.6341.3787,1.2756.7484,1.9174,1.1175a.55418.55418,0,0,1,.2596.4263v.047c0,.1608-.108.2271-.252.1421-.6417-.3691-1.2835-.7388-1.9182-1.1175a.55672.55672,0,0,1-.2596-.4354v-.0374c0-.1613.108-.2276.2528-.1426" style="fill:#344882"/><path d="M118.3402,54.5017c.779.4451,1.5724.9088,2.3587,1.3725a.55448.55448,0,0,1,.252.4357v.0471c0,.1613-.1151.218-.252.1327-.7863-.4547-1.5797-.9185-2.3587-1.3726a.55809.55809,0,0,1-.2593-.4354v-.0479c0-.1607.1153-.2174.2593-.1321" style="fill:#344882"/><path d="M118.3479,55.5338c.9949.5774,1.9905,1.1546,2.9928,1.7416a.55212.55212,0,0,1,.252.4258v.057c0,.1513-.108.2179-.2452.1425-1.0023-.587-1.997-1.1653-2.9925-1.7424a.63676.63676,0,0,1-.2665-.4445v-.0479c0-.1604.1154-.2174.2594-.1321" style="fill:#344882"/><path d="M118.355,56.5563c.6922.407,1.3989.8141,2.0982,1.2211a.58.58,0,0,1,.2596.4354v.0471c0,.1613-.1151.218-.252.142-.6999-.4071-1.406-.8232-2.0982-1.2212a.57071.57071,0,0,1-.2596-.4354v-.0569c-.0077-.1514.108-.2172.252-.1321" style="fill:#344882"/><path d="M118.4199,63.7696c.7857.4646,1.5792.9187,2.3726,1.3824a.57037.57037,0,0,1,.2525.4354v.048c0,.1604-.1085.2174-.2457.1417-.7926-.4638-1.586-.9281-2.3723-1.3921a.56495.56495,0,0,1-.2668-.4354v-.0471c0-.1613.1157-.218.2597-.1329" style="fill:#344882"/><path d="M118.427,64.8017c.9447.5587,1.8898,1.0981,2.8417,1.6568a.57054.57054,0,0,1,.252.4354c0,.0193.0068.038.0068.0567,0,.1517-.1148.218-.252.133-.9519-.5587-1.8967-1.0979-2.8409-1.6662a.57333.57333,0,0,1-.2596-.4357c0-.0187-.0077-.0284-.0077-.0471,0-.1613.1157-.218.2597-.1329" style="fill:#344882"/><path d="M118.4346,65.8244c.7855.4638,1.5789.9275,2.3723,1.3913a.58352.58352,0,0,1,.2665.4453v.047c0,.1514-.1148.2084-.2597.1231-.7931-.4638-1.586-.9179-2.3723-1.3816a.576.576,0,0,1-.2596-.4454v-.047c0-.1514.1088-.218.2528-.1327" style="fill:#344882"/><path d="M118.4491,66.8656c.3384.1993.6845.398,1.0383.6063a.55739.55739,0,0,1,.2452.4258v.047c0,.1613-.108.2277-.2452.1426-.3538-.1993-.6999-.4079-1.0383-.6063a.57059.57059,0,0,1-.2597-.4357v-.0567c0-.1516.1148-.2174.2597-.123" style="fill:#344882"/><path d="M118.4559,67.888c.7934.4638,1.5868.9281,2.387,1.4009a.55391.55391,0,0,1,.2526.4266v.0471c0,.1613-.1086.2271-.2458.142-.8002-.464-1.5936-.9278-2.3862-1.4012a.56452.56452,0,0,1-.2673-.4354v-.0473c0-.1514.1157-.218.2597-.1327" style="fill:#344882"/><path d="M118.3626,57.5878c.7931.4637,1.5934.9275,2.3939,1.3921a.59356.59356,0,0,1,.2593.4445v.0476c0,.1516-.1153.2174-.2525.1324-.8002-.4638-1.6005-.9278-2.3939-1.3916a.572.572,0,0,1-.2596-.4354v-.0567c0-.1516.108-.2182.2528-.1329" style="fill:#344882"/><path d="M118.3694,58.6199c1.0023.5774,2.0047,1.1645,3.0217,1.7612a.54423.54423,0,0,1,.2452.4257v.0567c0,.1517-.1088.218-.2452.1321-1.017-.5958-2.0194-1.1733-3.0217-1.7603a.54955.54955,0,0,1-.252-.4354V58.752c0-.1508.108-.2172.252-.1321" style="fill:#344882"/><path d="M118.3771,59.652c.7061.407,1.4128.8232,2.1197,1.2302a.55019.55019,0,0,1,.2526.4354v.0479c0,.1605-.1009.2271-.2458.1418-.7061-.4167-1.4128-.8238-2.1197-1.2405a.55683.55683,0,0,1-.2597-.4354v-.047c0-.1608.108-.2183.2529-.1324" style="fill:#344882"/><path d="M118.4635,68.9201c.779.4541,1.5645.9187,2.3579,1.3825a.54211.54211,0,0,1,.2452.4258.09265.09265,0,0,0,.0068.047c0,.1613-.108.2276-.2449.1517-.7934-.4641-1.5792-.9278-2.3579-1.3819a.6215.6215,0,0,1-.2667-.4451v-.0479c0-.1604.1151-.2174.2596-.1321" style="fill:#344882"/><path d="M118.4706,69.9522c.339.1987.6775.3975,1.0239.5962a.61407.61407,0,0,1,.2594.4354v.0476c0,.1511-.1157.2174-.252.1324-.3462-.1987-.6852-.3975-1.0245-.5962a.57668.57668,0,0,1-.2596-.445v-.0479c-.0068-.1508.1088-.2075.2528-.1225" style="fill:#344882"/><path d="M118.4851,70.9838c.7857.4546,1.5721.9187,2.3723,1.3921a.54769.54769,0,0,1,.2452.4257v.0471c.0068.1613-.108.218-.2452.142-.7934-.464-1.5866-.9278-2.3723-1.3915a.57183.57183,0,0,1-.2597-.4451v-.047c0-.1517.1148-.2183.2597-.1233" style="fill:#344882"/><path d="M118.3839,60.6835c.7934.455,1.5792.9187,2.3726,1.3825a.56649.56649,0,0,1,.2525.4257c0,.0193.0068.038.0068.0477,0,.1607-.1153.2174-.2525.142-.7926-.4638-1.5792-.9275-2.3723-1.3825a.58475.58475,0,0,1-.252-.445c0-.0091-.0077-.0284-.0077-.0471,0-.1516.1157-.2083.2526-.1233" style="fill:#344882"/><path d="M118.391,61.706q1.51485.8805,3.014,1.7611a.55289.55289,0,0,1,.2526.4354v.0471c0,.1516-.108.218-.2449.142q-1.5039-.89415-3.0141-1.7606a.58478.58478,0,0,1-.2528-.4354v-.0567c0-.1516.108-.218.2452-.1329" style="fill:#344882"/><path d="M118.4054,62.7381c.7067.4169,1.406.824,2.1127,1.2398a.5485.5485,0,0,1,.2452.4266v.0471c0,.1517-.108.218-.2452.1329-.7067-.4079-1.406-.8149-2.105-1.231a.55555.55555,0,0,1-.2597-.4354v-.0477c0-.1516.1148-.2174.252-.1323" style="fill:#344882"/><path d="M118.4919,71.9025c.7866.4637,1.5721.9275,2.3726,1.4011a.57644.57644,0,0,1,.2525.4255v.0479c0,.1607-.1156.2271-.2525.1508-.7934-.4728-1.586-.9371-2.3726-1.4011a.57407.57407,0,0,1-.2597-.4442v-.0479c0-.1517.1157-.2175.2597-.1321" style="fill:#344882"/><path d="M118.4995,72.9337c1.0024.5871,2.0041,1.184,3.0141,1.7799a.52059.52059,0,0,1,.252.4266v.0471c.0077.1612-.1009.227-.2449.1417-1.0094-.5871-2.0118-1.1829-3.0141-1.77a.60317.60317,0,0,1-.2667-.4453v-.047c0-.1517.1151-.218.2596-.133" style="fill:#344882"/><path d="M123.3309,55.3634c1.0522.6149,2.0982,1.2212,3.1436,1.8366a.56051.56051,0,0,1,.2597.4354v.0471c0,.1516-.108.2182-.2529.142-1.0451-.6154-2.0905-1.2212-3.1436-1.8366a.56395.56395,0,0,1-.2449-.4354v-.047c-.0077-.1517.108-.2183.2381-.1421" style="fill:#344882;opacity:0.6000000238418579"/><path d="M123.3377,56.395c.9159.54,1.8241,1.0695,2.7332,1.5998a.56152.56152,0,0,1,.2596.4354v.0477c0,.1516-.1156.2174-.2528.142-.9083-.54-1.817-1.0695-2.7329-1.5999a.54949.54949,0,0,1-.2452-.4263v-.0471c0-.1613.108-.227.2381-.1516" style="fill:#344882;opacity:0.6000000238418579"/><path d="M123.3524,57.4361q1.5792.9096,3.1581,1.8462a.53072.53072,0,0,1,.2449.4267v.047c.0077.1605-.108.218-.2449.1321-1.0531-.6148-2.1053-1.2302-3.1513-1.8366a.55255.55255,0,0,1-.252-.4354v-.0374c0-.1613.1151-.218.2452-.1426" style="fill:#344882;opacity:0.6000000238418579"/><path d="M123.3669,58.4682c1.2688.7478,2.5455,1.4862,3.8288,2.2346a.5679.5679,0,0,1,.252.4357v.047c.0076.1701-.108.218-.245.1418-1.2835-.7475-2.5599-1.4959-3.829-2.234a.616.616,0,0,1-.2594-.4451v-.047c0-.1613.1154-.218.2526-.133" style="fill:#344882;opacity:0.6000000238418579"/><path d="M123.3737,59.5003c.9666.5678,1.9397,1.1265,2.9132,1.7039a.56019.56019,0,0,1,.2596.4354v.038c0,.1613-.108.2271-.252.142q-1.461-.85155-2.9137-1.7039a.55542.55542,0,0,1-.252-.4354v-.038c-.0077-.1612.108-.227.2449-.142" style="fill:#344882;opacity:0.6000000238418579"/><path d="M123.4312,66.7145q1.59075.93675,3.195,1.874a.57047.57047,0,0,1,.252.4354v.0479c0,.1514-.108.2171-.2452.1321-1.0667-.6154-2.1342-1.2399-3.1941-1.8649a.57742.57742,0,0,1-.2597-.4451v-.047c0-.1517.1151-.2087.252-.1324" style="fill:#344882;opacity:0.6000000238418579"/><path d="M123.4389,67.746c1.2039.7005,2.4154,1.4205,3.6266,2.13a.56444.56444,0,0,1,.2452.4266c0,.0187.0077.0374.0077.0471,0,.1604-.1157.227-.2452.142q-1.81725-1.0656-3.6275-2.1206a.56718.56718,0,0,1-.252-.4264c0-.0187-.0074-.047-.0074-.0657,0-.1517.1154-.2084.2526-.133" style="fill:#344882;opacity:0.6000000238418579"/><path d="M123.4457,68.7781c1.0531.6245,2.1129,1.2399,3.1728,1.8649a.55039.55039,0,0,1,.267.4354v.0474c0,.1513-.1153.218-.2593.1326-1.0599-.625-2.1206-1.2404-3.1728-1.8649a.55245.55245,0,0,1-.2526-.4263v-.0471c0-.1613.108-.2179.2449-.142" style="fill:#344882;opacity:0.6000000238418579"/><path d="M123.4604,69.8097c.5987.3503,1.2113.72,1.817,1.0703a.55267.55267,0,0,1,.2529.4354v.0471c0,.1516-.1157.2083-.2529.1329-.6057-.3503-1.2183-.72-1.817-1.0703a.55273.55273,0,0,1-.2528-.4354v-.0471c0-.1517.1156-.2084.2528-.1329" style="fill:#344882;opacity:0.6000000238418579"/><path d="M123.4672,70.8417c1.0531.6254,2.1059,1.2408,3.1658,1.865a.56923.56923,0,0,1,.2525.4356v.038c0,.1605-.108.2271-.2449.1418-1.0607-.6242-2.1129-1.2396-3.1657-1.865a.56051.56051,0,0,1-.2597-.4354v-.047c0-.1517.1157-.2084.252-.133" style="fill:#344882;opacity:0.6000000238418579"/><path d="M123.3808,60.5228c1.0528.6157,2.1126,1.2399,3.1734,1.8553a.58243.58243,0,0,1,.2664.4453v.047c0,.1613-.1156.218-.2596.133-1.0599-.6253-2.1198-1.2407-3.1726-1.8561a.53632.53632,0,0,1-.2528-.4258v-.0471c0-.1613.1088-.2276.2452-.1516" style="fill:#344882;opacity:0.6000000238418579"/><path d="M123.3884,61.5639c1.2765.7478,2.5453,1.4865,3.8288,2.234a.55559.55559,0,0,1,.2528.4363v.047c0,.1608-.1156.2175-.2528.1421-1.2835-.7478-2.5523-1.4962-3.8288-2.2437a.56877.56877,0,0,1-.2528-.4357v-.0476c0-.1607.1156-.2078.2528-.1324" style="fill:#344882;opacity:0.6000000238418579"/><path d="M123.3952,62.5867c.9596.5584,1.9253,1.1358,2.8917,1.6945a.554.554,0,0,1,.2525.4354v.0471c0,.1517-.108.218-.2449.1426-.9663-.5684-1.9329-1.1271-2.8916-1.6946a.56226.56226,0,0,1-.2597-.4354v-.0479c0-.1604.1151-.2174.252-.1417" style="fill:#344882;opacity:0.6000000238418579"/><path d="M123.4749,71.8642q1.5792.938,3.1725,1.8748a.55938.55938,0,0,1,.2597.4451.13246.13246,0,0,0,.0071.047c0,.1517-.1151.218-.2597.1233-1.0599-.6154-2.1197-1.2407-3.1728-1.8561a.58372.58372,0,0,1-.252-.4354.17479.17479,0,0,1-.0074-.0567c0-.1607.1154-.2174.2526-.142" style="fill:#344882;opacity:0.6000000238418579"/><path d="M123.4817,72.9054c.6134.36,1.2192.72,1.8317,1.0794a.56162.56162,0,0,1,.2597.4354v.0476c0,.1517-.1157.2174-.2526.142-.6128-.369-1.2186-.729-1.8311-1.089a.55059.55059,0,0,1-.2526-.4258v-.0471c0-.1612.108-.2179.2449-.1425" style="fill:#344882;opacity:0.6000000238418579"/><path d="M123.4964,73.9377c1.046.6154,2.0982,1.2405,3.151,1.8553a.56992.56992,0,0,1,.2529.436v.047c0,.1608-.1157.2175-.2529.1324-1.0528-.6154-2.105-1.2399-3.151-1.8553a.551.551,0,0,1-.252-.4257v-.0479c0-.1517.1148-.2174.252-.1418" style="fill:#344882;opacity:0.6000000238418579"/><path d="M123.4029,63.6188c1.0667.6341,2.1342,1.2495,3.2017,1.874a.56993.56993,0,0,1,.252.4354.14766.14766,0,0,1,.0077.0575c0,.1605-.1157.2171-.2529.1321-1.0672-.625-2.1342-1.2495-3.2017-1.8836a.52213.52213,0,0,1-.252-.4167.14913.14913,0,0,0-.0074-.057c0-.1613.1154-.218.2526-.1417" style="fill:#344882;opacity:0.6000000238418579"/><path d="M123.4097,64.6503q1.91505,1.1226,3.829,2.2436a.59381.59381,0,0,1,.2597.4354v.0477c0,.1607-.1151.2174-.252.142q-1.915-1.1217-3.829-2.2533a.55107.55107,0,0,1-.2526-.4258V64.792c0-.1508.108-.2174.2449-.1417" style="fill:#344882;opacity:0.6000000238418579"/><path d="M123.4244,65.692q1.4496.83685,2.9061,1.7037a.52059.52059,0,0,1,.252.4266v.047c0,.1605-.108.2271-.252.1418-.9734-.5675-1.9397-1.1359-2.9061-1.7133a.53751.53751,0,0,1-.2528-.4263v-.0471c0-.1607.1156-.2174.2528-.1324" style="fill:#344882;opacity:0.6000000238418579"/><path d="M123.5038,74.8652c1.0525.6154,2.113,1.2405,3.1728,1.865a.57406.57406,0,0,1,.2597.4354v.0479c0,.1604-.1157.2174-.2597.1417-1.0598-.6341-2.1203-1.2495-3.1728-1.8746a.55316.55316,0,0,1-.2526-.4354v-.047c0-.1517.1157-.2084.2526-.133" style="fill:#344882;opacity:0.6000000238418579"/><path d="M123.5109,75.8973c1.2764.7575,2.5523,1.5052,3.8358,2.2536a.58276.58276,0,0,1,.2458.4442v.0479c.0068.1604-.1088.2083-.2381.1321-1.2835-.7572-2.56-1.5049-3.8367-2.2533a.599.599,0,0,1-.2594-.4445v-.0476c0-.1607.1154-.2174.2526-.1324" style="fill:#344882;opacity:0.6000000238418579"/><path d="M67.4396,22.8435q1.1898.69615,2.4007,1.3916a.60569.60569,0,0,1,.2526.4354v.0479c0,.1604-.1078.2174-.245.1321q-1.2117-.7101-2.4015-1.3913a.56956.56956,0,0,1-.252-.4357v-.0476c-.0076-.1516.108-.2174.2452-.1324" style="fill:#344882;opacity:0.5099999904632568"/><path d="M67.4464,23.8663c.635.3688,1.2765.7378,1.9182,1.1075a.57423.57423,0,0,1,.2597.4257v.0477c0,.151-.1157.2174-.2526.142-.6417-.3697-1.2835-.7484-1.9176-1.1174a.58386.58386,0,0,1-.2526-.4354v-.0471c0-.1516.108-.2083.2449-.123" style="fill:#344882;opacity:0.5099999904632568"/><path d="M67.4609,24.8692c.7857.4646,1.5792.9187,2.3794,1.3824a.59857.59857,0,0,1,.2457.4354v.0471c.0069.1516-.1085.2183-.2457.1329-.7926-.4637-1.586-.9275-2.3723-1.3824a.59829.59829,0,0,1-.2591-.4354v-.0471c0-.1516.1151-.2083.252-.1329" style="fill:#344882;opacity:0.5099999904632568"/><path d="M67.4756,25.8916c1.0024.578,2.0118,1.1741,3.0209,1.7612a.55182.55182,0,0,1,.2529.4258v.0479c.0068.1513-.108.2171-.2452.1417-1.01-.5967-2.0194-1.1837-3.0218-1.77a.58333.58333,0,0,1-.2596-.4266v-.047c0-.1613.1156-.218.2528-.133" style="fill:#344882;opacity:0.5099999904632568"/><path d="M67.4824,26.9053c.6999.4071,1.3992.8229,2.113,1.23a.55714.55714,0,0,1,.2525.4166v.048c0,.1607-.108.2174-.2452.142-.7143-.417-1.4133-.8241-2.1126-1.2311a.56865.56865,0,0,1-.2526-.4354v-.038c-.0071-.1607.108-.2174.2449-.1321" style="fill:#344882;opacity:0.5099999904632568"/><path d="M67.5544,34.0999c.8011.4638,1.5937.9374,2.3947,1.4012a.552.552,0,0,1,.2518.4263v.0471c.0076.1516-.108.2083-.245.1323-.8002-.464-1.5936-.9374-2.3938-1.4011a.59647.59647,0,0,1-.2597-.4258v-.047c0-.1517.1157-.218.252-.133" style="fill:#344882;opacity:0.5099999904632568"/><path d="M67.5621,35.1127c.9519.5587,1.9037,1.1075,2.8701,1.6855a.57427.57427,0,0,1,.252.4258v.0382c0,.1605-.1157.2172-.245.1418-.9666-.5684-1.9184-1.1262-2.8703-1.6849a.55272.55272,0,0,1-.252-.4264v-.047c-.0074-.1517.108-.2183.2452-.133" style="fill:#344882;opacity:0.5099999904632568"/><path d="M67.5765,36.1261c.8003.4728,1.5937.9374,2.3939,1.4012a.56773.56773,0,0,1,.2528.4354v.0374c0,.1517-.1156.218-.2528.1426-.8002-.4734-1.5936-.9374-2.3939-1.4012a.58585.58585,0,0,1-.2525-.4354v-.0476c0-.1517.1156-.2086.2525-.1324" style="fill:#344882;opacity:0.5099999904632568"/><path d="M67.5836,37.1389c.3461.1988.6999.4071,1.046.6154a.55172.55172,0,0,1,.252.4258v.0476c0,.1608-.108.2174-.2452.1324-.3461-.2083-.699-.407-1.0451-.6154a.54386.54386,0,0,1-.2597-.4258V37.271c0-.1508.1148-.2171.252-.1321" style="fill:#344882;opacity:0.5099999904632568"/><path d="M67.5913,38.1518q1.2003.70995,2.4151,1.4204a.59584.59584,0,0,1,.2596.4354v.0471c0,.1516-.1156.2083-.2525.1329-.8073-.4734-1.6152-.9471-2.4154-1.4204a.56767.56767,0,0,1-.2526-.4354v-.0471c-.0071-.1516.1086-.2083.2458-.1329" style="fill:#344882;opacity:0.5099999904632568"/><path d="M67.5184,30.9571c.6418.3785,1.2841.7475,1.933,1.1263a.59678.59678,0,0,1,.2593.4354v.0479c0,.1508-.1153.2083-.2525.1321-.6486-.3884-1.2904-.7575-1.9321-1.1362a.55663.55663,0,0,1-.2452-.4167v-.047c-.0074-.1613.1006-.2271.2375-.1418" style="fill:#344882;opacity:0.5099999904632568"/><path d="M67.5261,31.9697c.8002.464,1.5936.9278,2.3938,1.4011a.54453.54453,0,0,1,.2597.4258v.0479c0,.1517-.1157.2174-.2529.1321-.8002-.4637-1.5933-.9371-2.3938-1.4012a.54257.54257,0,0,1-.2449-.4257v-.0471c0-.1516.1009-.218.2381-.1329" style="fill:#344882;opacity:0.5099999904632568"/><path d="M67.6409,42.2036c.9451.5587,1.8969,1.1271,2.8488,1.6855a.55066.55066,0,0,1,.252.4257v.0471c0,.1613-.108.2279-.2452.1426q-1.42785-.8376-2.848-1.6759a.611.611,0,0,1-.2596-.4354v-.047c0-.1613.1156-.218.252-.1426" style="fill:#344882;opacity:0.5099999904632568"/><path d="M67.6485,43.2261c.7858.4637,1.586.9283,2.3794,1.4011a.59823.59823,0,0,1,.2597.4354v.0476c0,.1517-.1151.2084-.252.1234-.7934-.4638-1.5936-.9375-2.38-1.4012a.56613.56613,0,0,1-.252-.4263V43.359c-.0076-.1516.108-.2183.2449-.1329" style="fill:#344882;opacity:0.5099999904632568"/><path d="M67.4901,27.9178c.7857.4544,1.5792.9182,2.3723,1.3825a.57631.57631,0,0,1,.2596.4357v.047c0,.1514-.1156.2084-.2525.1321-.7934-.4728-1.586-.9275-2.3726-1.3915a.56592.56592,0,0,1-.252-.4258v-.0476c0-.1607.108-.2174.2452-.1324" style="fill:#344882;opacity:0.5099999904632568"/><path d="M67.4969,28.9307c1.0171.587,2.0265,1.1837,3.0356,1.7708a.52579.52579,0,0,1,.2458.4161v.0479c0,.1604-.1086.2171-.2458.1417-1.0091-.5967-2.0185-1.1837-3.0356-1.7708a.58231.58231,0,0,1-.2449-.4354v-.0374c0-.1517.1156-.218.2449-.1329" style="fill:#344882;opacity:0.5099999904632568"/><path d="M67.5045,29.9443c.6993.3972,1.3984.8141,2.1053,1.2212a.59363.59363,0,0,1,.2526.4258v.047c0,.1613-.1157.218-.2449.1426-.707-.417-1.4069-.8238-2.1059-1.2308a.56507.56507,0,0,1-.2452-.4266v-.0471c-.0076-.1613.108-.218.2381-.1321" style="fill:#344882;opacity:0.5099999904632568"/><path d="M67.6049,39.1742c.7934.4638,1.5936.9374,2.387,1.4012a.58534.58534,0,0,1,.2673.4263v.0471c0,.1516-.1156.2083-.2596.1323-.7934-.4728-1.5936-.9368-2.3871-1.4102a.538.538,0,0,1-.2525-.4263v-.0471c-.0071-.1516.108-.2086.2449-.1233" style="fill:#344882;opacity:0.5099999904632568"/><path d="M67.6196,40.178c.3314.1987.6639.3974,1.0024.587a.563.563,0,0,1,.2525.4354v.0471c0,.1516-.1085.218-.2525.1329-.3317-.1993-.671-.398-1.0024-.587a.56631.56631,0,0,1-.252-.4264V40.32c0-.1613.1148-.2183.252-.142" style="fill:#344882;opacity:0.5099999904632568"/><path d="M67.6273,41.2004c.7925.4638,1.5933.9374,2.3862,1.4012a.55306.55306,0,0,1,.2525.4354v.038c.0069.1607-.108.2078-.2449.1324-.7934-.4638-1.5936-.9375-2.387-1.4012a.59816.59816,0,0,1-.2597-.4354v-.038c0-.1607.1157-.2174.2529-.1324" style="fill:#344882;opacity:0.5099999904632568"/><path d="M75.3355,27.4445c-.8078-.4734-1.6081-.9463-2.4015-1.4012-.1369-.0851-.2526-.0284-.2449.1329v.0471a.5848.5848,0,0,0,.252.4354c.7931.455,1.5934.9278,2.4012,1.3915.144.0763.2452.0193.2452-.1324v-.047a.53745.53745,0,0,0-.252-.4263" style="fill:#344882;opacity:0.5099999904632568"/><path d="M75.3423,28.4573c-.6417-.3691-1.2764-.7379-1.9182-1.1078-.144-.085-.2449-.0284-.2449.1233v.0479a.56409.56409,0,0,0,.2526.4354c.6417.3688,1.2759.7475,1.9182,1.1166.144.0762.2452.0096.2452-.142v-.0471a.54946.54946,0,0,0-.2529-.4263" style="fill:#344882;opacity:0.5099999904632568"/><path d="M75.3571,29.4707c-.8005-.4638-1.5937-.9275-2.3794-1.3825-.1372-.0754-.2526-.0187-.2526.1329v.0471a.56207.56207,0,0,0,.2594.4258c.7857.4549,1.5792.9283,2.3726,1.3921.144.0754.252.0187.2449-.1418v-.0479a.53863.53863,0,0,0-.2449-.4257" style="fill:#344882;opacity:0.5099999904632568"/><path d="M75.3639,30.4931q-1.5141-.8805-3.0141-1.7612c-.144-.085-.2597-.0187-.2597.133v.047a.602.602,0,0,0,.2673.4355c1.0024.587,2.0041,1.1644,3.0141,1.7611.144.0757.252.0091.2449-.1426v-.047a.51856.51856,0,0,0-.2525-.4258" style="fill:#344882;opacity:0.5099999904632568"/><path d="M75.3715,31.5156c-.7069-.4264-1.406-.8334-2.1129-1.2405-.1369-.0754-.2449-.0187-.2381.133v.047a.52852.52852,0,0,0,.2452.4258c.7066.407,1.406.8147,2.1126,1.2404.144.0754.2529.0187.2529-.1417v-.0479a.54514.54514,0,0,0-.2597-.4161" style="fill:#344882;opacity:0.5099999904632568"/><path d="M75.4503,38.7292c-.7925-.4728-1.5936-.9369-2.3862-1.4012-.1445-.0853-.2525-.0283-.2525.133v.047a.57555.57555,0,0,0,.2596.4263c.7931.4638,1.5934.9375,2.3868,1.4012.144.085.252.0187.2452-.1329v-.0471a.51846.51846,0,0,0-.2529-.4263" style="fill:#344882;opacity:0.5099999904632568"/><path d="M75.458,39.7426q-1.42785-.8526-2.8556-1.6762c-.144-.085-.2526-.0087-.245.1421v.0479a.52946.52946,0,0,0,.252.4158l2.8557,1.6761c.144.0851.2525.0187.2525-.1233v-.047a.56173.56173,0,0,0-.2596-.4354" style="fill:#344882;opacity:0.5099999904632568"/><path d="M75.4724,40.7554c-.7931-.4638-1.5933-.9374-2.3867-1.3915-.1446-.0851-.2526-.0284-.2526.1233v.047a.56221.56221,0,0,0,.2526.4354c.7934.4638,1.5936.9275,2.3867,1.4012.144.0754.252.0096.252-.142v-.038a.5494.5494,0,0,0-.252-.4354" style="fill:#344882;opacity:0.5099999904632568"/><path d="M75.4795,41.7682c-.3532-.2083-.6993-.4071-1.0454-.6154-.1369-.0853-.2526-.0187-.2526.1327v.0473a.57587.57587,0,0,0,.2597.4354c.3461.1993.6922.4071,1.0451.6154.1449.076.2458.0193.2458-.1324v-.0476a.56482.56482,0,0,0-.2526-.4354" style="fill:#344882;opacity:0.5099999904632568"/><path d="M75.4863,42.7907c-.807-.4825-1.6149-.9465-2.4151-1.4199-.1372-.0754-.2528-.0187-.2452.1417v.0474a.56768.56768,0,0,0,.252.4263c.8011.4734,1.6081.9374,2.416,1.4108.144.085.252.0283.2452-.133v-.047a.53207.53207,0,0,0-.2529-.4263" style="fill:#344882;opacity:0.5099999904632568"/><path d="M75.4143,35.5771c-.6417-.3793-1.2903-.758-1.925-1.1268-.144-.0853-.252-.0187-.2452.1417v.0479a.52991.52991,0,0,0,.2529.4161c.6341.3697,1.2832.7481,1.925,1.1268.144.0757.252.0187.252-.1329v-.0471a.54047.54047,0,0,0-.2597-.4257" style="fill:#344882;opacity:0.5099999904632568"/><path d="M75.422,36.5899c-.7934-.4638-1.5866-.9372-2.3868-1.3921-.144-.0851-.2452-.0284-.2452.1233v.0476a.5494.5494,0,0,0,.252.4354c.8002.464,1.5937.9278,2.3871,1.4012.144.0757.2525.0187.2525-.1418v-.0479a.54045.54045,0,0,0-.2596-.4257" style="fill:#344882;opacity:0.5099999904632568"/><path d="M75.53,46.8521c-.9519-.5587-1.9038-1.1174-2.8486-1.6662-.1363-.0949-.252-.0286-.252.1231v.047a.59571.59571,0,0,0,.2597.4354c.9442.5499,1.8961,1.1084,2.848,1.6761.1445.0754.2449.0187.2449-.1323v-.0477a.54955.54955,0,0,0-.252-.4354" style="fill:#344882;opacity:0.5099999904632568"/><path d="M75.5371,47.8746c-.7929-.4737-1.586-.9374-2.3726-1.4012-.1369-.0754-.252-.0187-.2449.133v.047a.567.567,0,0,0,.2525.4258c.7858.4637,1.5792.9283,2.3723,1.4012.144.0759.252.0192.252-.1324v-.0471a.55852.55852,0,0,0-.2593-.4263" style="fill:#344882;opacity:0.5099999904632568"/><path d="M75.3783,32.5284c-.7931-.4734-1.586-.9371-2.3723-1.3915-.1369-.076-.2449-.0193-.2449.1323v.0471a.53685.53685,0,0,0,.2526.4263c.7857.4641,1.5789.9278,2.3723,1.3916.144.0762.252.0192.252-.1321v-.0479a.52712.52712,0,0,0-.2597-.4258" style="fill:#344882;opacity:0.5099999904632568"/><path d="M75.3931,33.5412c-1.0094-.587-2.0194-1.1832-3.0212-1.7603-.1446-.0853-.2526-.0196-.2526.1321v.047a.54743.54743,0,0,0,.2526.4267c1.0018.5771,2.0118,1.1738,3.0212,1.7603.144.0859.2525.0192.2525-.1321v-.0474a.54822.54822,0,0,0-.2525-.4263" style="fill:#344882;opacity:0.5099999904632568"/><path d="M75.3999,34.5546c-.6993-.4076-1.3916-.8147-2.0906-1.2217-.1448-.0851-.2528-.0187-.2452.1329v.0471a.54866.54866,0,0,0,.252.4354c.6993.3979,1.3916.805,2.0914,1.2211.144.0763.252.0193.252-.142v-.047a.574.574,0,0,0-.2596-.4258" style="fill:#344882;opacity:0.5099999904632568"/><path d="M75.5011,43.8131c-.8005-.4737-1.5937-.9374-2.3871-1.4012-.1363-.0853-.252-.0283-.2449.1234v.047a.58671.58671,0,0,0,.2526.436c.7934.4637,1.586.9278,2.3867,1.4011.144.0754.2452.0188.2452-.1425v-.0471a.53566.53566,0,0,0-.2525-.4167" style="fill:#344882;opacity:0.5099999904632568"/><path d="M75.5084,44.8265c-.3313-.1993-.6706-.398-1.0023-.5967-.1301-.0666-.2449-.0096-.2449.1321v.0479a.56832.56832,0,0,0,.252.4354c.3246.1987.6639.3884,1.0023.5871.144.085.2449.0187.2449-.133v-.047a.51812.51812,0,0,0-.252-.4258" style="fill:#344882;opacity:0.5099999904632568"/><path d="M75.5223,45.8393c-.8002-.4637-1.5936-.9374-2.3862-1.4011-.1369-.0763-.2525-.0284-.2525.132v.0383a.58058.58058,0,0,0,.2596.4354c.7931.4638,1.5866.9374,2.3791,1.4012.1449.085.2529.0187.2458-.1324v-.038a.53988.53988,0,0,0-.2458-.4354" style="fill:#344882;opacity:0.5099999904632568"/><path d="M75.8976,22.2281c.7787.4454,1.5577.8995,2.3364,1.3541a.54258.54258,0,0,1,.2451.4258v.0471c.0077.1613-.1011.2182-.2381.142-.7789-.4541-1.557-.9082-2.3357-1.3536a.582.582,0,0,1-.2458-.4263v-.047c0-.1608.1009-.2271.2381-.1421" style="fill:#172a69;opacity:0.5099999904632568"/><path d="M79.5107,24.33c.7787.4451,1.5573.8992,2.3363,1.3541a.52975.52975,0,0,1,.2449.4258v.0471c.0071.1513-.1009.2179-.2381.1329-.7787-.455-1.5576-.9091-2.3363-1.3541a.52939.52939,0,0,1-.2452-.4258v-.0479c0-.1508.1012-.2174.2384-.1321" style="fill:#172a69;opacity:0.5099999904632568"/><path d="M83.181,26.4503c1.7016.9845,3.3962,1.9696,5.1046,2.9637a.54285.54285,0,0,1,.2452.4257v.0471c0,.1516-.1003.218-.2375.1426-1.7093-.9941-3.4039-1.9792-5.1055-2.9637a.52633.52633,0,0,1-.2449-.4166V26.602c0-.1607.1009-.2271.2381-.1517" style="fill:#172a69;opacity:0.5099999904632568"/><path d="M129.0849,51.8607a2.95455,2.95455,0,0,1,1.3485,2.2907c.00711.8328-.57711,1.1741-1.3201.7387a2.98451,2.98451,0,0,1-1.3479-2.3006c-.0074-.8334.5803-1.1546,1.3195-.7288" style="fill:#2f427e;fill-rule:evenodd"/><path d="M64.4975,47.3442c1.2308.7305,2.4679,1.4559,3.6993,2.1779a.49614.49614,0,0,1,.223.3878v.085c0,.1426-.0997.1973-.223.1233-1.2323-.7393-2.4679-1.4564-3.6993-2.1869a.5.5,0,0,1-.2236-.3884v-.085c0-.142.1003-.1862.2236-.1137" style="fill:#ebffff;fill-rule:evenodd;opacity:0.49000000953674316"/><path d="M64.5335,50.7336q3.24255,1.919,6.49,3.8435a.49946.49946,0,0,1,.2236.3884v.085c0,.142-.0935.1959-.2168.1233q-3.243-1.92015-6.49-3.8435a.50683.50683,0,0,1-.2304-.3883v-.095c0-.1321.1009-.1859.2236-.1134" style="fill:#ebffff;fill-rule:evenodd;opacity:0.49000000953674316"/><path d="M64.5625,53.7823c1.5417.9193,3.1019,1.8351,4.6508,2.7643a.52768.52768,0,0,1,.231.3787c.0008.0275,0,.0664,0,.0947,0,.142-.1046.1939-.2237.1233-1.5534-.9229-3.1096-1.8538-4.6511-2.7649a.497.497,0,0,1-.2236-.3787c0-.0374.0006-.0672,0-.095-.0057-.1417.0941-.1958.2166-.1224" style="fill:#ebffff;fill-rule:evenodd;opacity:0.49000000953674316"/><path d="M83.1229,64.792c1.5471.9236,3.0971,1.8227,4.6513,2.7553a.50637.50637,0,0,1,.2305.3787c.0014.0374,0,.0664,0,.0947,0,.142-.1026.2001-.2305.1233-1.5514-.9261-3.105-1.84-4.6437-2.7453a.50632.50632,0,0,1-.2313-.3983v-.0941c0-.133.0913-.1931.2237-.1143" style="fill:#ebffff;fill-rule:evenodd;opacity:0.49000000953674316"/><path d="M129.9359,87.1446c.2157.1321.3966.0375.3889-.2179a.895.895,0,0,0-.3965-.6821c-.2231-.1321-.396-.0374-.396.218a.90329.90329,0,0,0,.4036.682" style="fill:#344882"/><path d="M129.95039,88.6116c.216.1329.3965.0283.3889-.2174a.92833.92833,0,0,0-.39659-.6917c-.2236-.1225-.3966-.0283-.3966.2183a.89026.89026,0,0,0,.40429.6908" style="fill:#344882"/><path d="M129.9648,90.2024c.216.1233.3892.0187.3892-.2271a.894.894,0,0,0-.3968-.682c-.22369-.123-.39661-.0283-.39661.2174a.90132.90132,0,0,0,.40421.6917" style="fill:#344882"/><path d="M129.9787,91.8306c.2166.1233.3898.0187.3898-.2271a.89734.89734,0,0,0-.39661-.682c-.22358-.1321-.39679-.0283-.39679.2084a.90238.90238,0,0,0,.4036.7007" style="fill:#344882"/><path d="M129.9864,93.3639c.216.1329.3965.0283.3965-.2075a.9212.9212,0,0,0-.4042-.6917c-.2236-.1233-.38921-.0283-.38921.218a.85923.85923,0,0,0,.39691.6812" style="fill:#344882"/><path d="M130.00079,94.86c.216.1329.39661.038.39661-.2084a.9253.9253,0,0,0-.40421-.6911c-.22369-.1326-.39659-.0379-.3889.2175a.87439.87439,0,0,0,.3965.682" style="fill:#344882"/></g></svg>